/* XPM */
static char *_d97de73a2a5410be97a48cedd719918AF1cRd39XbsJQKlB[] = {
/* columns rows colors chars-per-pixel */
"128 127 64 1 ",
"  c #040204",
". c #54563C",
"X c #4C361C",
"o c #14320C",
"O c #440204",
"+ c #343E24",
"@ c #6C4624",
"# c #0C1604",
"$ c #9C5A14",
"% c #342A14",
"& c #4C4A4C",
"* c #7C522C",
"= c #543E1C",
"- c #14220C",
"; c #3C3A3C",
": c #646A4C",
"> c #442E1C",
", c #140E04",
"< c #444E34",
"1 c #5C6244",
"2 c #242A0C",
"3 c #2C1A0C",
"4 c #444244",
"5 c #1C160C",
"6 c #543E2C",
"7 c #0C0A0C",
"8 c #5C5A5C",
"9 c #4C3A2C",
"0 c #844204",
"q c #C49A2C",
"w c #3C2A1C",
"e c #5C462C",
"r c #242224",
"t c #44321C",
"y c #2C361C",
"u c #2C220C",
"i c #040604",
"p c #645234",
"a c #4C3A24",
"s c #3C462C",
"d c #744E2C",
"f c #141E04",
"g c #AC7A1C",
"h c #4C4E4C",
"j c #8C5E34",
"k c #5C4224",
"l c #6C7254",
"z c #141214",
"x c #2C2E2C",
"c c #444644",
"v c #1C1A1C",
"b c #544234",
"n c #3C2E14",
"m c #242624",
"M c #443224",
"N c #342214",
"B c black",
"V c black",
"C c black",
"Z c black",
"A c black",
"S c black",
"D c black",
"F c black",
/* pixels */
"i,,5,i7,,5ii7,,5,i7,,5  iii ii,7i,5,i5, i i ,i i ,,5,,5,,5i,5,,3,,z,5i,5,,7ii5,,5ii5,,i iii ii,7i,5,i5, i i ,i i ,,5,,5,,5i,5,55",
" 5,35,,u3,7i ,5,5,,335   ii  53,z55,,,,    i,i ,,3%5uyuu5u555u%%z,535,,u557i ,5,5,,535   ii  53,z55,,,,    i,i ,,3%5uyuu3u,55u%,",
" ,3%u35%%3,,i,%5Nuu%N3ii,5, ,n%55uuuu55  ii,37 ,5ntN>st%un%y>MMa5,N>u5Ny%u,,i,%5uuu%w37 ,5, ,n%55uuuu55  ii,37 ,5ntNNst%%%uu%>N,",
" ,5nu55u%N,,75N3t%3nw3, ,,7,5>%335Nyu5, i,,53,7,3+s%N>n%u%uu>n>n5,3>%53%uN,,75N3>%NnN3, ,,7,5>%335Nyu5, i,,53,7,3+swN>t%u%55%%35",
"i,3>u53%%3,,,3NNts>%NN57,,,,5Nt%353>57,  ,5,35,5Ns<%%tt%%uu3%MtN5,3>u55%%3,,,3NNXsw%NN57,,,,5Nt%353>57,  ,5,35,5Ns<%%ntnuu5,%>N,",
" 53Nu55%nw3353wtXst%3N35,55,3><%%uN%u , i,3,3N33w=s%>tn%uumu%nnN5,3%u532tNN3,Nn>Xst%NN35,55,3><%%uN%u , i,3,3N33w=<%>tn%uuN5N%3,",
" ,,3u35%N3N>33>Xa<nn3w3N33,53s<%NNN3%5, 733,N33N>s<>nM>%33Nu%NN3353Nu55wN3N>33>Xa<n>3N3N33,53s<%NNN3%5, 733,N33N>s<>tatw3uuuw335",
"i,3N333N333>3wtXX<t%3N3nN33,Ns<tN3w3+3, ,%N3N33>><<sXnnNN35uuNN33333uNNN333>3NtXXst%3N3nNN5,ws<tN3NN+3, ,%N3N33>><<aMtnN3N5uu33,",
"7,533%w33N3>3%t=ss+%3N3NXsN53><X>>N3+35 ,%%3>w><s.<s<twN3353NN33N33Nun>N33Nn3nt=<s+%3%3w>bN55><X>>N3+3,7,%%3>w><s.<s<XwN335uu33,",
" 53>N+>N333>NNt=ssX%N>3wsb%33tss+X>3X35,,nn3n%s1s.s<<=NN3333uu333,3>%stN333>3Nt=ssX%3>3Nss%33Xss+X>3X35,,%>3n%s1s.s<<=NN33N3uN3,",
" ,3>ns+%33NN3Nss<<<wnX%nt.yN><<s=M<>sN353>X>nN.1sp<<s>N3333NuN335,3ttss>3N3NNNss<<s>>Xn>tpyN><<s=><XsN353>XnnN.1sp<<s>N3353NNN3,",
" ,N%+s+NN3NX3>s...<tn=XXs1>3N<p<66.<<w33NNtNN><1<<..s>3N33NNNw3353wssssN33>X3>s...<t>=tXs1n3N<p<=6.<<w33NNXNN><1<<<<s%3N333333N,",
"i,3ss<s%33XX3N=..1.=Xett..w3N=..a61<k>NNNNNN3X<.<<..=a>N3333N3NX>3><<<<n33==3%s..:.=tett..n3Nk..a61sk>NNNNNN3X<.<+ssstN33353333,",
" ,w<ss+s33>=3Ns+y+y%%%u3%yu35%yyu%y%%u5535N355n%%%y+%%u555,5353n55Nyyn2253Nn,3nyyyy%%%u3%yu35%yyu%y%%u55353355n%u2+<<+>333333335",
" 5ut+s+a3N3t3NX5f-f535,5#f,i,5f-5ff5,,,,,,,5,,###f#f,,,,,,7,,5,,7 ,,f#77 5,,5,,5#-f3555,f#,i5,--,-f3,5,,,,5,5,##2yy<e+t33N333N3,",
"i,us+4yyN33>3Nn5222uuu55525,5u22522223,5,5,,555225-2235,5,,,,,33555522,,,,35,35552ruuu55523,5u22522225,,5,,5,55y<sy<.t+5333,3335",
"7,y<<<+N333XNNXuf+.<<<s>t<<%%<<<<<<..M%%N333,w<.<<<<<ss3,N>333w+s<sb<.+533NX3N+.s<.s<<snt<s%%s<<<<<..X%wN333,w<.<+y<.<y553w,3335",
"i5+<s<k>333>3>t52s.<k<st+s+>n<.....<<6Mt>>N3,w<1.<.<<=%N,3N33NNb<p.<<.bNN3N>3>>s..<<e<<tssswn<.....<<6Mt>>N3,n<..<+<<=N5,3N5333,",
"72ys<.=tN53tNtt-2+<s=<stt++t>.<<:.<..<6sttX35><......tN5535,3>>s..<<<.=%333>N>Xs<<.s=<stn++t>.<<:.<..<6sttt35><..s+<1>u,535,3>N5",
"i5y...t%3533%nsf2s.<ss<t+y++<.........<<<n>3,+...<....%53n3,N=ss<.<<..=w3333N>s<<p.<ssst+y+s<.........<<<n>3,+...sa<.<%,3w5,3a%,",
" 3+...sN,33N>Xt-2s<sssss+s++<..1..1:11<<s>n35s....:11.w,5>3,Nsss<.:1..<N53NN>t=<:<<s<ssss+++<..1..:111<<st%35s.<.s<..<N,,w3,3+%,",
" 5.1<.tN,33w>Xsf22<b+s++++bs.11111:1:1.<eXt33X..1.111s,,3353s<s<...1..tN53N>=X<<.+ss+s<X++bs.11:11:1::<<@t333w<<:<s.1s,,33,,X+>5",
"i5+1<<%5333nX=<22+.<s++Xyss<..111111l1<.<=nN3%<.1...:.%5>N,,>.<<11...<%N533>tX..<s<<s++>y+s<..11.111:1<.<tNN3><p1<+<1<%,>N,,>st,",
"7us...<3,N3Xk.<2-y..<s++s<<....111:111<<<<X%N<<.:...1.s335,5Np.<.1.:1.<3,3NX=<<.<s.p<s++<<<....111l111<s<+%NN<<.1<s<:.sN35,5N<+,",
"i5s...<,,,3X=<.2-y.<.<<<....<.:1111.11...<X>3X<.1.<...stN35,N.1..1....<5,33X=<.<s+<<.<<s......11111.111.1s%>3X<.1<+<1.sXN35,w<s5",
"75<<<.s,333=<.12-+...<se.<-2--2o2o2o2-o---ut5,2%y2--o22u33,,,---22--oo-,,33>u22y#f---##52#-2--o2o2o2o-+..s%n%><.l<s<1.1<33,,s.+,",
"i5s<<1<5333=<:.2-+....s<.<ff#-222--ff#####-3,5f22-f#f--35,5,7i#--####-,,,,33#f-#i7###57 #f#f#-22%---z#y..+yt3yp1:<y<:.1stN,5+<+,",
"75s.<1su3N3X...2-<.<<.<<1.-##f-22--fz#fff#53,5f--f##--25-#,,,-###f###f#,5,5,####i######if####ff2o---f#y..+uN>s<.1<s.111s<s3,a.+,",
"i5<<<:<%Nn3><1.22s.<.1<s.<-##-2------#--##,3#,  f-3--f-,,5,5,ii -##f##f,,555#######7###i#####-2----ff#s1.<uNsyu51<s1:1.tspn,<<y,",
"75sp11.%Ny5>.1<v2s<...<s..<.<<:1111111...<sX%u5s..11l1.<<<+3<xz+<..<...wN+3w<.<<.<<<<<<s.<<.<<:1111111...s%tnu3s1<<1:1.<<.s,<.+,",
"i5<..1.X>+5t..<-2s<..1<s..<<:11:l:l1111..<<=+<<.:111::1:.<>3s<<.<111.1.tt<3>.....1<.11<s..<<:11:l:l:111..+%as<<.1<s::11..<n,s++,",
"75<1.1.ts+3X<..o2+<<..s....<.11111l:111..<s<s<<::11.111..snn<<@.11:1...t<<w><..<.<<<..<<...<.11111::111..y2ss<<.:<s<111..<%3<<>,",
"i5<1<1.s<<%s<<.--s.<..<<...<....1111111.<<<sX<<1.<..1111.<+%+s<.11111<<ss<s=.s<<<<<<..<<.<.<....1111111..<o<X<<11<+.1..:.<s5ys>,",
" 3<sv<1+tsuss<.--+..:..<..o--2-2o22y22o-#f#ff22y2--222o-2##,f---2--o2#-35f3f5f-f#f--2-2#---2-2-2o22y2-s1.+2<s.<11ss.l.1.1.s5<sy,",
"i5<rz<.<t<+<s..fv<..1...<.-###--#2------####,fff-#i#2f--f#,5#5##f####7##5######i##f#f#f# f-###--#2---#+1.+2<s<<11sy<:s.1<.nus<X,",
"75<rm1...sy<<..2vs.<1..1..-##f##f-2-----###f7##f3#7#-#fff### f 7ff#-##f-###7#######7######-###f#f-2--#+1.sy<<p..1s+<1..1.:<yspt,",
"i2.ss..1.s+<.<<22<.....<<.-##-#f##---###i7i###z#-##-##ffz##7##7#fff########7#i###############-####---#+1<sy.....1<+p1..:11.2..y,",
"721...1..<+<<<<v%<.....<<<<<11..111..<1.<<<<<....<...<..<.<<.<<<..:1.1.<<1.<s<<.1.<<<..<<s<<11..111..<:1.+2<.11.1ss.1.1111<2.<+,",
"i5s1<1.<:<y<.<<--s....1<<<..<:1.1:1<<11.....<.111...1.11....<<<.:1::11..1....<<<....<.1<<s..<11.1l1<<11..<+.<.111s+<1<11.1<+<+y,",
"75<l+<.<1<+<<..--<....<<<<...11.<1..<11<<.....11.<....1.<:.<<.<<1.::..1.1..<<.:.c......<<<..1111<1..<:1<<<+.1..1.s+<.<11.1<y<<+5",
"i5s11.:.:<y<..<-2s.1<1<<..<<1..<<.<<1.1<<<<<.1.11<.<..:1<<<<sp1s..1...1.11<<..<<....<1.<h.<<1..<<.<<..1.h+y<<1111sy...1l1.<+<.s,",
"75y11.:11<+11.<-2<1::1<.:<f-o--o-2##oyoo#o----oo--#o2--of#f#-#-f----222oo-o2o-#f--oy----of#------2#foo+...+...111<y.1..1..<o<<s,",
"i5<.1<111<y.1<<2m<.11.<<.<##########---###ii#i#-###-----#7   i 7####f--o-###f7i##-#--###fi f#####f##--s1.<+<.<.11s+1:..11.s2<+%,",
"75s...1:1<+<.1<2m<111...<:--#######f---#7##i#######----#f##    ###f###--#-####i##---##-#i-#f###f####--+1<<+.c1<<.<+.1111.<<2ssy,",
"i5+s1...11+.11h-m<1111.<<1o#######-----7i#-7i###f##o---#### i  #####--##f-########-##o-i#--#######--o#s<<.sss.<<.ss111:11:<2ss+,",
"75ys.s<.1s+1..<-%s1l:<<<<.<.<<<.1<.11..ss<<<c1<...1111..<<<<ss.<<...1.<......<.<1<.l1<<s<<<.<<<..<.11..ss<y<<1...<<:1111..so+s+,",
"i5+1.1<.:<+..1.vo<1:1.<.<..11:111.1111.<s<1.:1.11.111111<..<s<11...11111111.111..1111.1.<..:11:11.1111.<+<s..:.11<<.1111..s22+<,",
"75<:11.<1.s11..vm&:1.<.:.:11.11.1.111:1<..1111:1..1:1:1...<<<.1..111:11.1111...h11l111111111.11.1.1:111<.<s<h111.<+.:111..so2ss,",
"i2<11.:.<<s1.<:ou&:1.11:11.<.1111...1..11.1:.11<....11h....<s..cl11:11l.<.11.<11:1111.1:11.<.111:...1..1:s+..11s1<s<1.11<.<2<yy,",
"75s:.<1..<+1<.122c1..1.l.1:11.11...<...11<.1.11:11..1h:1.<.<<.1111111.1...11<.:1111...1l.1::1.1:<..<...11+y1111.1<+<1.1l1.<oss+,",
"i2+1:.<.<s+1:112y.1.<<.1l:ll11.1..<<1<11..1:1111.11181.1.<.s<.l..l11l111<.1:11::1:1...:1:ll:11....<<.<1:1<<.1111.<<.l11:...+s.b,",
"7v<11..<<<+11:1yy.1<+s<::llll:111<<1.<.11<11:1..11.1111.<..<<111:l::l11.<.111:1:11....1:::llll11:<<11<.1.<<s<1.<1<s<111111.y..s,",
"i5<:.....s+1111y2s1.+ss11:::111...1.1.<1.<1..1<.1:11111.<..<<11:::1:11...<.:1111.<...<.1:::1111.....1.<1.sss+1.<1.s.1111.1.y<<s,",
"72.:.....s+1::.2-s11ss<11:111111.<<...<1....<<<1.1..111<s<..<.:11:111:1:..11:...<.1:..111::111:..<<...<1.<ssy<<<:<s<1111.1.y1<+,",
"i211.<...<y.11.o2<11<.+l11111.........<.<<..<<.<....1111s<....11l:l:1111.<...111.:111.1111111.........<.<+ys+<1<1<+<1111.1.+1.s5",
"72<1...<.sy.11.22<11s.+.11.:1.....<<.1.<.<..1<<..<.11:1<s<11...1l1::111...<..11:111..1..11.11.....<<.1.<1s+<+<<..++11.1.<..+..+,",
" 2<111.<<<+1.11o2<11s<+.1:111..1...<..1<........<<11....<<.....11:11111.<.11.11111.:.1..11111..1.1.<..1<.<+ss....<s<1...<..s<<y5",
"i2+..1.<..y111122<1.sss.1..11.11.1<<1..<1...1.<..<1.....<<...1<11l...11.11.11:1111....<.1..11.11.1<<...<..+ss.<..+s<.<.....+.<+,",
"i2.111..1<y1111oy.11<<+<1..1:1..<..<11..<.<<..<1.<11111.<<.1<<1<ll1:1.111..1111111111.1<11.1l1..<..<11..<.y++.<.:ss.111.1..+<<+5",
"72<1.<<.1<+.111+y<11sss<..1:::.<...<111<<<<<.111..1l:l1<<.<<s1..:::1:..11...11:1:1.111.<..1:::.<...<11:<<<+y+1:..s<:ll1....y<<+,",
"i5<.<.<..<y<:11yy.1..1.<..1:ll111<<<.:..<<1.11..1.1:1<<<<s<<<<<.l11:::.1...<:1::l:1.111<..1:ll111<<<11..<++<...<.<<11<<<...+.<+,",
"i5<11.1<.<+.111y+.1..1.:..1ll11:1.<<.111<<<...<<.11l1.1.<s<<s<<<1:l1111.11..11:l11...111..1ll11:.1<<.111<+y...<<:<s:1...1.so.<n,",
" 5s111.<.<y<1..oms1..11.1..:111....<1..1..ss.<<...11....<<sss<...1:::11.11..1..11....11.:..1111....<...1.so<.<<<.<s.1.111.<o<.yz",
"75s...<<1<s....22+.:1:1.111.11111.<<11..<<<<<<<.<...1.<<<<<ss<.:..1111111111...1.<.111:.111.111:1.<<11..<s2s<<.<<s+<...111<2<.+,",
" 5s<<<<<:<+1.11o%s1.1..11:1....<<<s<...<<s<++<<<<<1<.1<<<<s+s<<:1..<.11.111..111..1<......:..1.<<ss<...<<yos<<.<.<+h11.111<o<st,",
"i2<<<<s<<sy.11.-oc1.......o---o##o##---####7#-#-#---oo#####i7-ffooo-oom-----ooo-----o#o--ooo---##o##-#+.<s%ss<<<<s+<:1.1..<+<<t5",
"72+<s<<<.ss111.22+..11.11.o#####7i i####77#iiiiiii####i7ii#  #i##ff#z--###---#v######--f-#-z####7iii##y.<+y<s<<<<ss<.1<.<1.+.<t,",
" 5<1<<<1:<s1111o%s..11.1.<-#####  #i#-#fiiiiiiii#i7iiiii  #   7###-#fff--#-ff#-#######ff##f#####i #i##y1<+2<<<.s.sys<<<1s.1y<<t,",
" 5<.<<<11<+11112os<1.<1..<-##7#7ii7i#-#i  iii#7if###i7#iii i ###5#-f#ff--###-#--##i########f#i#7iii7##+.syo<<<<<.<+<<<<...<y.:t,",
"i5<1<<...<s...122s<.<<11.<<<<<<<<+ss<<<<ss<<<sss<<<<<sss<s<ssss<<.:1.<.......<1..<<.<<...s<<.<<<<+ss<<.<<yy.s<.s<ss<.s<<...y..n5",
" 5s11p...s+<11.o-+<.....<s<<....<<.<<1.1<<<ssss<<<..<<.<<<.<ss=1..111.1...1<11..<.<...1.<s<<....<.<<<1.1<sysss+s.++<<s.<<.<+.<n,",
" 5y1<1111.+<1:.f2s<<.1.<<ss<<1...<<<.111<.<<sss<<<:.<.<.<<h<sks....1.1111l1<:.1<1.<<.11<<<s<<....<<<.111<s+s+=+s<+=.<<...1.y<<t,",
" ,y.<.:l1h;....o2c<...h.<<+<<<<.<s<<..11<.sss<s<s<..h<<.<<<<s<<<<s<...1l118<..<<..<<<1h<<<+s<<<.<s<<..11.+2s<<<sss+<.<<..1.+.<%,",
"i5s<<<11.<<11..22+<<<.<.<s##-###f##----2-##7#f#5#--o----f#f #f--ff222-2o--oo-of--####-###i7#f#f###ff-#+:.s2ss<<.<+s.1<<..1.y1.s,",
"75+<..11.s+11..2-+<..<ss<s##if###i7##f##f# i 7##f#--f##7#### ##--#------##f--###7#if#ii i  #7###fii#fiy..s2<<<<..ss..<<<11.+1.+,",
" 5+<<.11<<y1h:1o#+.<.ss<.<-###7#f########7###7i######f##ii##i##f##3#ff--###-#--# ##7#  ##i####7######7y11ss..<...+s<..<....+.1+,",
"75+.+<s<<sy..112-<<<<s<<<.--##ii#i7##f######7i###i##f####ifi7####f##f##fi#######i#7i#i##i##-##ii#77###+1.s+1<<.<.ys<...:..<y1.+,",
" 5+<<s...s+...h2fy.<s+<<..<.<<<<<<<<..<.<..<<<<.<<..<<<<.<.ss.<:...<.<.<<.<1.cc.s<<ss+<s<.<.<<<<<<<<..<..<s..<<..ys<.<..11.+..+z",
" 3+..<<..sy<.<s2-+s+sss<.1<..<...<<....:111...<1.<.....1111.<..1....1:.....<.<<1<s<+<s<<.1<..<...<<....1:<+...<..+s<....11<y11s,",
" 5+<<<<.<s+<..s--y+s.<p<11<<...<..<....111.<<.<.....11...<1..........1....<<..<.<s+s<<.<11<<...<..<....11.+<<..<.s+.1..<..<+1.y,",
"i5+<+<...sy..<s--+<<<<...<ss..<<.<<..<1111.s<1s<<...........<.<<<..1.....<...<s<<s<s<<...<s<.<.<<.<<1<1:1.y<<.<<<++<....:1.y1.yz",
" 5y.s+sssy+.1.s-vy<<e<<.:.-#--f##-f#---22y2##-#f##-----2o--#f-#----22-#--f--o-i#-7#f##-----#--#f#ff#ffs:1.+s.1s<1+s<.<s...<+11s,",
" fy.s2222-+s.1<--+s<s..<.1-#i##i7#####ff#-2#####7###fff##f#f###f##7--f f#7  ##i#     #5f#-f####7i#####y1..<.1.<<<<y<1<-yy+y+1.y,",
"i5s<ss<<ssss<<.--+<<<<.<.<##7##ii##5#-f##f-###f#7#7#f###f#########7#f####    i7#    i7###7##i## 7##5f#s..<s1<.1<<.y=....111.11+z",
" 5ys.s<<.<s<s<+--+<<<ss..<fi###i##f##5##f#fif##########f3###f#if####f####7  ii 7i#iii7i####i###i##f###y1.<y<...<ps+<.:1111.1:.+,",
"i,ysss=<<1<+<<s--<<..<<s.<<<<.<<<....1l...<<<..<<<<<...11.<.<<<<<<..1..<.1s+<sss<<<.<<<<<<<<<.<<<....1:1.<+<<..<.s+<11..11.11.+,",
"75yby<s<<.<=<<+f-+p.<<ss+ss<<<<<s<<s<<...<<s<<<s+<<s<<<...<<s<<ss.<<<<<.<<<++++s<s<<<ss++<+<<<<<s<<s<<.<.<y<...sssys.<.111....s,",
"i5ss+s<<ss.<<<<-2<.<<<+222rvmvyy+2yu22+yyy+y+yyyyy222222+y+22+yyyyyt22+y2-22222222m222222urrrvyy+2yu2%y+yy+:.....<+s.<..:111..+,",
" ,y<<s<<<<<<<<<2-+<.<<<<<<&s.......<<<h....11...:.<<<<.<..<.<...<.....1.<<<<<s<.<<<<<<<<s<&s.......<s<h...111...1<y<<....1....+,",
"i,+s<<.<<ss<.+<--s<<<<<ps<<<..1.11.s<<<....1.<:11.<<...11.11<<<.....111.<<.<<+<.<<.<<<<.s<<<..1.11.<<<<....1.<.:1s+s..11.11...+,",
" 5y<<p..s+2nsssf-+<.<<<<<.<<<.111<s<<<<:.<<<Xs<.1.<...1....<<<<<....111.<y++sbs<<<<.<<<e<.<<<.111<s<<<<:.<<<ts<<:<ys..l..1.+<<+,",
"i,y..<s%N353s<su-++s<<.+ss<<<.<s%%%t<s<s<s=N3Nts1..<<<aw33n3%s+ys...:.<n3333s<s<<<+<se<sss<<<<<<%%%t<<<<<<aNNNts1<ss..=uuu%#2.2,",
" 5wts%N3333N3>s52%3NX+yXX%N%>33N3wnw33w3NNN33N=<.=aXt>3,N3,33NNwX<<s<%3N33NNN>s<<>33X+ytt%wN>N333NtN3NN33NN33N=<.X%ttX3OO3O,N%3,",
"753N35,,535,,,N,3N33335,33,5335,53333333,35,5,3>NN33N33335,5,,3333%N%33333335,N>N3333N5533,,335,5N333333,35,,,N>N33N355555,7,,55",
",5N3,77  7 77  i,,,,,,  ,53,,55,,,7,777,7,   7,,535,,7,5N5    5533NN5,,,5,57    ,55,,,  ,35,553,,,7,777,7,    ,,5N5,,ii5,    7,7",
" 7                   7  7     7                                 55    7   ,    i       i  7                 7 ,          i i    ",
" ,,,77  5,,,,35,3,5,7     i  77  7,,77 ,,,,, 77,5N5 i ,5i  i5,,,3,7     ,3>N3wNN,   7    ii   7  i,,77i7,,353tXw,,,i ii,,,,,,,,,",
"i553,,7,5uu%%+tiukXX,,35,,,5555533N3333w333N555N==N, i5N353535,33,5,7  73>=0000X553, ,,5,,53N=X355N5,,533>t>Xk0tNN57  ,wNu>N>3N,",
"7,333, ,5N%ss<N,5XX3 533wN553N35NNX>X=kkN>N335333>t57,5>@nuuuN553335,  ,N=0$g$XN5N3, 533N>NX=0t5333353kkNX*k0@N3N33,7,,3N%<<sN3,",
" ,33N,,,5uys<+3,,533,3N>=kXN52232u=@=$g$*$*N522N33N35,NNX$=-55,5N3353,5N3k$gg*35N255,3N>=k0gg@v52uu33kg$*$g$$k233333,,335a.<<>3,",
"i,%333N333y+<st,55533>@0$$g*2m2vo2%X$ggg$gg*222u%uw>3333XggXvf#3uuN553333>$ggn5N225,3>@0$$gg@rvv22xukggg$ggg@22u%nuw33N3N<.s<+N5",
"i,2u33333wyb<.< ,55N3k$$gggg*yv2222y@ggggggg*22y+%uN>N3N>$ggt5-5222N33N3,kgg+u22225N3=$$ggg@vm2o2v%dggggggg*2222+s%NNN33N<<+<+%,",
" 5yw3,33wny<<<<7,5533@ggggggg*2v2222o@ggggggg*22y22uNN>NN$ggg>#2mm=@N3>X=gg+vrr2v%n3>$ggggdvv222v%*gggggggdv2222yyyy>w333<<2s+n,",
"7,y%5N+>>y2<<<<,75533u@ggggggg*2v2222%@ggggggg*%r222N3kk@gggggtzm=g0>0g0$$n322222e0NN$ggg@vvo22v2*qggggggdvv22-2=sy+>3>NNes2+ay,",
" ,%3Ntsss<2<<<<=3533Nur@ggggggg*2mm22mmdggggggg*yy25333=$ggggggt=gg@X$g$*sv222oy@$X3t$gg@vo222v2dqgggqgg*vv22--ag<yy33NNa<s2+s+5",
" ,2%%tss<y2<<<s0k5533urmdggggggg*yyy2ymv*gggggggev2uN35N$ggggggggqg00$g$+5-2o%-6$d=wn*gp22yyrrydgqggggg@v2-22-2gqsy+wN>>s<s-ss%,",
"i,yy%2ss<y2<.<=0$k3N3n2v2<11bs<y+ssss+y+c.cXgggggkv2uuNr>$ggggggqqg$$ggXv2-22vXgg$0@X.<ssys+y++sy.s..1;,22v22-dqg+y9as<<<s+fyyu,",
" 52+2,+2222.<<<0$$kNur22ms<yy++yycs<+;+sysrfgggggg=ry+m25%gggggggqggggav22o2vXgggg$$s<+ys+ss++cyyss<ysv#mm2v2$gggsys.<ty+yyftyu5",
" 7y+f-2y+ys<<<s0$gg*yrrm2+s+<<<h<<....<.<sr-gggggggemy%ymvn$gggggggggav2mrrvXggggggg<<s<<sb<<s<<<<..<<vzr2z2*ggggy+&.<+sny2%+yu,",
" ,2y2ss<.<<<<ss0$ggg*2v22<s9++sb<<....<<<<y5@gggggqgkry+22vn$gqgggggXv2yr2vagggggqgd<.<<.<ss++<s<<....v#2m2dggggg;+...11.<<<sy+,",
"i,2sy++ss<<+=<+0ggggq*2v2.<+sy<ss......s<.+##@gggqqqg=ryym2z%$qggqg6-2222vagggggqq*v.1<<<<<ssysb<.....-5rrdggggqq<+...1.<.<s+++,",
" 52+yc<<y=+<ss+=ggqqqqj+r<++y++<<1<...<<.s2#-v*qqqqqqqexrv5-#%gqqg6222y2v=gqqqqqq*yo..s.<s=sy++<<.<..<-7y$qqqqqqgs+<<.11s+<+ysy,",
" ,2yys+22+s<ssy2$qqqqqq$yyv2ryy+y++sssss++2f--r*qqqqqqq=rr2--z>ggX22my2-bgqqqqqq*2mr.sy+++y+ry+yys+ssyr#$qqqqqqg.+s<..<ym+<++<y,",
" ,2+y<+s+<<s<ssmkgggqggq*2mvvrvv2muy+y+yyyrr222v$qqqqqqg=m22f2mw%m22y+magqggggggx22ysyry22rvvv3v2mryy+m@qggggggprc<<..<<<<<<++tz",
"i,2ycs+ss+s<sssy2+sss+%+yyymrrrmy+yy++yy+ymy+yyvv<<<<ssssyy+2y+v-y++++++++ys++++myys+y2yy+yr2mrmyyy+++y++++++++v2....1.1<<<<sss,",
" iv<sy+sb+ssns<sss<s;+y+sc+y+++s++s<<ssbs<s++ssy+<<ss<<h<<<++h<sy<<<ss<<syy+yyc+s<<<+++++s+++++s++s<<ssss<s++++yy.<<<<1..<<<s<+,",
"i,fy+y+++yysy-y.<<.+yy+y+s+s;<s++s.<s.s<<<sb.s++<.<<<..<..<<<<s+<<<..<<<+y++y-+<<<<+yyyy9s++;<s++s.<b<<<<<sshs+sh.<.<..<<<.se<%,",
" 5fvxya+yy+ss2rs<<ssy+yyx+ss<<<sbss<s++s<<ssss++.1....<<<<<<ss++<.<...<<+y+cs%r<<<<<y9y+xsss<<<ssss<ss+s<<<+2s++.1.....<<.<s.s%5",
"i52#zy++y2+ss+-m=<<.s.+wy+<s.sss<s+<bs<.<.<<s++s.<<.<<.<<<s<.++..s<.<<<<+y+s++-r<<.<s<sry+ss.sssb<+<ss<<e<<s2++<<<<.s..<<<+s1<t,",
" ,5#5+2yym++ss5v-ss+ys+yy;ss<ssss++<<<<<<ssssst+s+<.<..<<<.<s++<++.<<<++ay+sss-m++s+ys+y++ss<sbss++<.<<<<<sy2sysvr<.<..<s<ss.sui",
"i 5,z-++y%s+ayv#rs+++4<ys+s.s<e<s<s.<....<<se<yy+s<...<....<<ayyass<<<sssy++9yvmx<+a+&<y++b<<<<<sss.<<p..<<y2<+22s<<1.<<s<.<sui ",
"   ,5#ys+y2++ymm;s+axs+y+y++s<<+s;s.s<<<<<a<<syss+<..<<<<<<<<sy+s+<<ss=s+y%++yvx;+++x++y9y+ss<s+s9s<s<<.<<ssysy+ss<p.<<<ss1s%   ",
"i   ,ff++cvy+vr++;sr#z5#5##5-3fz,v525vf-5f3o2-----22xmu-32%2-ffffv--2-ov--if#i7zzv-f##5z###z-5-5z-v23vf-#r52ybssss<<..<<<..>  i ",
"  i  5,#ryzvmyryyyyymr2rrvvrx+yyxsys+sys+ssy<y2++yss<<s+s<s+++5y2+yys+ny+2zvmmvm2m2rrr2mmvvmxsyyx+ys+sys+ssyssysas<<1.+s:.%7i  i",
"   i  ,,5-v2xs22y%y+2yrymmyxy+ys4++ss+s;<<<s<++y2++s<+++<<<<<+w+2+yy++yy+2v2+s22yyy+ry2ymmymyyy+4++ss+s;<<bs<+yy2s+<<sy<<u7  i  ",
"i      ,,uuu%%uu%2%y%%%%uu%uuu%yyywyny+y+yn>+yy%u%y++tys+Xnt+n%%u%Nuyw%%uu2u%%uu%u%y%%%%uu%uuuny+yw+%y+yy+%tsyynu%yy+%+tn  i    ",
" i i i i,5,z5,,z,,,,,5,z,z,,,,,,5,,,,,5,,,,,,5,,,5,,,5,,,,,,,,,,,,,,5,,,z,,5,,zz,5,,5,,z,z,z5,,,,,,,,,5,5,,,,,,,,,,5,,,, i   i i"
};
