/* XPM */
static char *_f958da70b0e401bfb5e60c4111c09ea1vJKhEAISdMu653v[] = {
/* columns rows colors chars-per-pixel */
"128 128 32 1 ",
"  c #040204",
". c #444244",
"X c #646264",
"o c #242224",
"O c #545654",
"+ c #141214",
"@ c #747674",
"# c #343634",
"$ c #4C4A4C",
"% c #0C0A0C",
"& c #6C6A6C",
"* c #2C2E2C",
"= c #040604",
"- c #444644",
"; c #242624",
": c #5C5A5C",
"> c #1C1A1C",
", c #7C7E7C",
"< c #3C3A3C",
"1 c #4C4E4C",
"2 c #6C6E6C",
"3 c black",
"4 c black",
"5 c black",
"6 c black",
"7 c black",
"8 c black",
"9 c black",
"0 c black",
"q c black",
"w c black",
"e c black",
/* pixels */
">>>>ooo;;;*oo;<<;;>>o;+++>oo;;<>+>+>o;;*;%+>>>*;.#;;;*;;;>>>>o;o>>ooo;*<#.#<o++>o*;;;>o>>>o>o*oo*o+>>>>o>+*<o>+>;;**<#**o;>+>;>>",
";>>>>+%+;;*+>oo>;#;>*#o+>%>>**+ ;+;*<**<>+;o>;#*>;>>>*;o>>>>%%++;>>>>;>*:$#<;>>>;*<;*;>>>>>;;>%>;;>*;o%++;<;;+%%>*;;***;o>;++***",
";;>>+;>+>*o+>;+%o**#;>>;>+>;**;#*><<-<#.+>;;#**;++>>>o;*o++=%%+>+>>>+>><-**<>+>;;<*o;<*;*;##;%+>+=%>;;+%>>>>*o>==*o>**o*;>>;o;;*",
">+%=%+>++;>>>o;**<**;%+++>;***<<>;*<-.<#;>+;**<***>%++>+==%++>>>>>>+%>;>o#<;+;#***;;*$<#;;+% +#+=>>+>;>%>>++#*;o+ >*<*<$o>+>#<o>",
">>+%+=%%+>;>>>*<#**o+=+>>>;*+;>o++##<1$*;++>>***<*+%+%=% %%>%>+>%=+>>;;;;#*#*<#;;;o<<o%   =%%>;%+;>+++;>>>>>;*;;;% ;<o*<<;>+;o>;",
";>>>>++>;+*;;*##-$<>++;*;;#%%>;>++>#1<;*;>+>><1.<*;++%++++++>>%=%>;*;;*;;*;**>o*;o;<>=>>+>>>>%%%++>>+>>>===%+;#*>>=    =o#;>>>>>",
"#*;;#;;;.;>*<-<*<$<;>*-<*;>+;;>+++>>;;***-<;*<O.<<o=+>+>>>%>+%+;;;;;#;+ +*o++%%+>+>++>**;;>+>+%%++>>>;>;%= =%+++%+;;=%*+=+;<;;;*",
"#****;*;#*;<-<#-**;>+>-<-$<-<;>>>>>;;**>+-;%+>***o%%>;>;*>+++;>;;o;*>= >#<o;+;;+>>+%;;;>;>>>>>>;#*;;;>**>==+>>;>>>><;#<#>= +;*;;",
">;;+>>>>*>-#<<<$1<**-<+>;#--.*>>o++;#.>=%>>>*-#;>%++>#>;**+>*;;>>++%=+;*#>*#<#<##<>*<*o;#>;>>;;;;>>;>;#-;>+>>>;;;>+#<*>##>%= % %",
"%++= ==+>;<*----1O#<*#*%+;*#*#o>>++><#%;*++;<<<<+>;;;>>>+>*-#;>;>>;;;;>>o>*;o**#*;*<<*<#*>**;+%%++>>>;*>>**;>*>++=o;**>;>>>+=  =",
"== +%>=**-*<<<..<1<>o;%;>=+****;++;*>+>*#+>;o<#.>>>>;>>+==;**>;;;;#>>>>>>>>>;o>oo*#*<*+**<#>==>*;;;;;o+++>*;>;>+%;;;;;o+++++=+++",
"+=>>;;**<<-<#-<<<**>#+=%*>= >*<>+>#;#*>;*;+=*****%=%++%%==+;;;>>>++%+++>>;;**>;+>;<<>>; %*+=+;#;;;;o+++>%>>>>++=;o*;>o>>+%++++>;",
"*+%>;*>*#<<<#<#;-<*o+>*%%*#%+<.+;;>+;<;>#;>#<;**#*;>;>+=   >>>++>++=%%>>>;>*;<o+;#<>>>>+= =o*;;;;;*;+;>+++++++++;+=**>>;>++;;>;;",
";+>;;;;######<-+*$#+*;*#+>;*><-+;+>**;;><*>#.oo#*1<;<#>%>;>;;+++>;+%;>+>>;>#>*>;*;*;=+;#;#<<;o;*;+o#*;;;+>>+>>++*;+=<<;;>+;;>;;*",
">+;>>>**<*>>;-O#*;>o#+>*#>+><-;>>%>>>>>;;*>;*>>o*:;+>;;;o*>=>;>+>>=+<*>++;+;;o+*#oo>=>####.;ooo;oo+;#*;*>;>;;;>>*>;= +;#>>>>+>;;",
";++%%;<;oo***..*1<o;>>>>*;>;*<;%>+>;*#;;;;*>++#$-<*;;*o>;*>%+;*>%%%>;++++;;>>;%oo+%%*#***;;>>;*>*->%+;;;*>+>+%%+#*>=%==>;;;;;#;*",
";+%=>*+o>>;#<<$:2.+-<>>>>;<.#>+>>+;**<;;***%=+:2O.$-*;;++;*++;;*;**;+=%+>>>+>+%+<++*##>%+>;*>**>>>>>==>*#>>+%%=%#*+%+%==+%%+>o>*",
"+>*;;>;;++++*#$#>O%;->+>>>*-;=%%+>>;*-*>#<; =*::<$*;+%;;+>;>++>><<#*>=%>>+;*;>;>;1<*;+>>%%o#*oo>%+>++==*o>;;;;+;*-;%>+==+%%+>;>%",
"++>;#*;>>++%++>o*11.;>+o>>;#+++%+>>+>1#+*;*+#2X-#;++%>*1;>+>>>%%*#;>>%%>+;>>*;<;*11#*%+;;++>o>>;;;;>>+%+;>>;;;;;11-;=+>====%+;>+",
"+%+%+>;;;>>>>;**1%>1;;>;>>;*%>%=+>>+;*;+#*;%%O,$;+>>+++;;>++%>%+;;;>%%+>#*=+#;**<;-<<++>*;+%==>*;>>+>>++>>>;;*##-##*o=**%=== +=%",
"===%===%+;***#;<;%%>o;*#;+;;%>>+>+++;;*>#*;+ $<##%*;=%>>++===%+>;>;;+++><;=;>>*#*<.<#>%+;>>+==+;>=%+++=+;>;;>-,:**;#> ;<>+++%+==",
"% =%%>>+++==+>+<O;%#-;**;>*;;;>>++>>;*+;-**+%;-$#>+%=>-<<*;>>;;>>>*;>>>>#++*;>*#;*<*>+%;*;>+= =%>+>;*>+;;;;;;*-XX1#**++#>>>>>>+%",
">++>>;*;;*>+==;O<o+o<;o>>>*;o;+%%%*>;>><*o;+o+<11#  >;<#<##;**>>>;;;>>>#+=*;++*#++*;%++>>>;+==%+>;o;;*#-*;;;#**#1$;*<*=;*>>>>>>;",
";o>;;;;*;#>>+%+<%+>=*.;>;*<>%#+%%+>+*+#*>>*><;*#<% >;o*****#*;>>;>;*;**>=#-;%%;##+#;+++%>;**>;;;>+>>++;-*>>>**;#*;*#1$>%*#*;*;>;",
";;>>;*;o;;;>;;;<;#>==<*>*#>=+;>+++;*+*#;+>>%>;<>+%;;o;*#***o>>>>;;;;;;%>#<;;%%>**;<>>%=%>>;;><<o;o++>%%**;>++>o**<;;<.<>=>;;;*>>",
";;;+>>>>>>;;*-$-;;%=%><#<> +>;;>+>*##<#;>;+++=+>+.1;;*;;;o>>#;>++;;#>=;#>+>>+%*;*##o;>%%%+>+%*#;>>++;;=>;>%=+>;;.<o>>;#<>=%>#;>>",
"oo>>>;;;;o;*<1.#;=%%++##;=+;*;*;;;;***;;>;%>>%=+#11<;;;***>>*;;>=%+>=><>+;>++%*;*<#*;;>==>%>+>;;;>>+>+=>;==%>;**;o;>>*#*;;==++;>",
">;>;;*#;*<*-.$<-*%=>o;#<>+>;-<o;;;#*#;o>>%%;;%=<1.1$.#<**<*>>;>;>===;<+;;>%+;%;>;*<**;;%=%%>+>;>>#>++%+<*%=+>>*%+;#;o*.1<o++>+>;",
"*>>**;ooo<<--;#.;%%>##;;>;>%>*;;;**-*>%++=%+==>--#*.$..***#;#**+>+;##+;*++;<#>+>>;#*oo;+%+>%>%>;>+#*%=+;;>+++>;%>;*<**<<;#*>*-++",
"*;;*;***;#<#*;*#*o;**;>+>;%+>;;**<#;>+>>=%>>;*<*#<*<<<<<<<<*<$##<-.;=>#;%>*#;;;<<#**;>>>+%+++=;;;+>#>%%+++%>>*o;;;<<*;;;>#*>>*>+",
";**#*<#<-;o;o>>o-<<#>>;+;*++;**<**<>;#>+>##<--<#*;;***#:.<<#<<<>*;*>>.**%%%>;*###*;;>>>>+%+;+=+;o;%;;>++>++;;>>>o;*#;oo>>>**+++>",
"**<<<-.*<<>;>+***<#*o>>>;#;;<<<#*oo;#;;*<#.1.<-*#*o;;*.-#$$#.#-#;;;*;**<*>;;>;;*;;o>>;>+>=%>>+=;;*>=*;++>>;>>>;;;;#<<;o>;>%>>;;*",
"<<<**<<o;;>>+>**<<<;>>>;*<-*<<*;o;o;>;;>+;##<<-<*#<<o;***<<<<--$.#<--<#;*;;;*>>;#<>>>;++>>%+>>=>***=>;>>>>>;;*##***<#***##>+##**",
"#o;o>o;*>++++;;<-*<;>>>*<*#>;<*;;*o>o>>;>+****<-#;;o<>>;;;*;;<##<#-.-<**;o+=>;;*#**>+;+;;;>>>>++;;*%+;;;>;>***-<<-<*<-$.<<;##<#<",
";o>>>>;*+%+>;;**<;;***;**>>>>#*>>>o+;>%%+>>##*;#*;>>;>+>;;o>;;;#;o*#;;;o#>==>*#*oo*>>*;*;>>>>>>+>>;+=**>;;;>*>*#-O1<$:XO1-;<*<#;",
">>>++>o++>;+#***$#;oo*;;>>>>>;>;o;>+>>%===%+;;+>*;<#+;*>>;o>;*oooo;o>;<;o+=+*;*o>>;>;#<;#>+>;>>++;*; *#;#>;>%;>;*#<-::&X:$*-**;o",
";+>+>+++**>+;#*o;<<o+=>o>;*#;***;>+>;;+= %++++%%;<**;o**>>>*>>>;o;>>>+*;>%==*<*;;+*;>>>+;;>>>;>>>>**=;##.*;;>+*;>;;<-$1$-#;;o>o;",
";;;*;+>>;>+%;;;;o;.#o++>>;**>>>+++;;#.;%%+>>;;;;+<*<*;o*o*;>>>>;>>>>;%>>>+%%+*;;;+;*o>>;+*;>>>;;>>#-+=%+>#*#*;+;;;;*<<--<<<;>>*<",
"*+>*>>>;;>%+;o+>;>o*<#>+++;*+%%%+>>;*#>;;;>*>o>++;o*<;oo;#o;o>>;o++;;+>+>;>>;>*o**o;*;>>++>;>;;;>;*-#+%>>*.<;;==+#*>***####>>>;;",
">>;>>o>*;++>>o+>;;+>;*;*>>;+=>;>;;;;;%+;#;>#>+%+>+>**<.**;o>>>+>>>>*#;>+><;;*>+>#$*+;#*o>%=+>+>;;;>o*.;>>;#;>>+>->>*ooo>>>>>>;+;",
">;*>;o>*;++++>;;;*+%>;;;+>+%**;;o;>+%>+>>>>>>=+;>%;;<<;#>>*>*;+>;**<-**-****;+=>#<#o>*<;>%%+;%+;;>;o*#;+>>*;;;;;;>=>****o>o>%==+",
"+o*;>;;>+o+>>;**;o>+>;;>;;=+;>;;>+=+>+>;o>>+%%*>+>>>;+ %+;**#*;*-<<#<;o-<*#*;>%;<.**o;**;>+%>>%;;;*;>>>%+;;;;;;;>++>#o%>;;>%=>+o",
";+*<##o%%>*;;#*#>+>;o>>*#+>;+>>%== +>;;-#;%%>>**;;>=+%;*o<;;;#.<1<##*>+>-#**;;;<##<;;*;;#;+%%++;**;*;>>%++>;o;o;;>>;>>= ;.*+;>>;",
"#+;-#>%=%;*;*;;o>o;<->+;++>>;+%=  +;;o>#<*%+*<**;**==+***#***<.;;;**>##+>*#**;*<##*>>*oo#;;>%==+>+++%%+%+%++>o;**;++;>%=+>>>>+>;",
"o>>+%=%=>;;>*;+>;###*>%%+++>>;>>;**;o;;;>=%>##*;>>;;%%+*<*<>+o;;>>#*>#*>+=o<<*o;**>%>o>++>*;+=+>+;>%%++>>>+=>;;*;*o++%++%%>;*>>;",
">>+%=++>;;;*;>>;;<#>>;%+%%>>>;*:X-*;;;>;;+>;-*;;;>+;**;***>>+%+*<o;>+%+>>=+#<-<*;>+%+>>>++++%+>;#-<*>;;**;>=+;;;>o;;++>%=>**;>;;",
">+++>++**>;>+>;##o>++++>+%>>>;*-#;>;;;>*+#<;**+***>+>;><<*>>;++>*ooo>>;>>++*-1o++>>>>;>>>>%=%>>;*#***<##;;;+=>*> +;;>>>+%;;<>>>>",
">>;*;+*<;>>+>;#*;>>+%+>#>+>;>>;*>%>;*+#+>#*;>+++>>*;;>+#.<#>;;>+%++>;*;;;;;;<>%;<<###<*;;>>%+*<<1-#<*;#;=>;>==+=>>+>>>;>%>>*+%+>",
";>;*;;-;o;>;;;#;>++>++*#%;;>;>>o;*;;><1;;#>>>+>>>++;<<*>;<-*+;>+%==;;>+>;*<>++>****<<#;;>;*>;>1:-.#*>>*>>**>== +*>+>>>>+=+>;+%+>",
";>;;*<;>;;*++;#oo>>;;+#;=#;>>>;*###>>*>>><;*;>#;;;+>;-##>;#*o*>>%= =>%=;*-#*;*<;>>>>;;;o;###-#>1##**;;#>;*;;+++;;;>>;#>%=+;;++>;",
"o;o*<o>;;;>;;*>;*;+;#;**+*<++>--*;;>++**>;*>%+;o;;;>;;#;*+%oo>>>%= =+;>;**<*<#.#>+>;>;;>>*1-;*%+*<;*###**>;%+>;;o>>>%>;+=+;;+>>;",
";*<;>+;#;+;*;o+>*>%;;#*>>;*%;##-<;*;%+#O+%;;=%;*<*;>**;;*<>++>*#>++>>>>;;;*;<#****++;##o;#<;;>%=+#*;#***>%++++;;;>;;=>;+%+>o>>>;",
"<<;++*;;+;<;*>>>=%>;.#>+++#;*##--;<;%+>+%%;*+=;**<-;+>*<;**+>>;;;;#*>>++;***>*;;*;;%%#*o>;;##>%==%>;*;o;>o++>***<**#;;;>%>;>;>;*",
"<;>+>;>=>*;o;>>=%;;>*;%;*;#<1#;**<;>;;;=>>+;o=+;***>+;#<;;*o++>>+>-*>;++;#;<>>*;oo<#+>>>;*;oo>+=%%+>#;;*;*>+;#<#.##;#*;>>>>%>;#<",
"*>%+o>%%>>>>>;%+o;>=>>=>>;-<-*;;*;;$o*o+++++*;%>>>++%+o;;>o>+%>%>+**;>+>+<#<<%><*<;>;>>>>>o>;#>=+o>>>;>>;*;>;;>#<*<#;*;;*;+=%;;;",
"*++>+%%%>>;*;>+;>;%;*+=>;;#*;;;*>>.*>;>*>>>%;*>+o++>%++%++++%%+%>%;;>;;+=;<#->%#:#o+;;>>++++;>%=+>;>;*+=%**;;;<-<*<1*>o;>o+%=%>>",
"%%;+====>**;;>+%%=o-; +;;<2$;*<;+;;*;;o*;#*>>#*>+%+;>>+%====%%++>%>;>;;;+%.$1.>>-#>>>;>+>>%+++%=+;**;;#>=>#;;+><<;;*#+% =>+===%+",
" =+== %;;*>>>>%;>+<*+%;>%<2-;<#+%;;<*o>;*;;;o**;;=+-#*;>>%%>+%+%+++;;++<; #O-O;%>#o>>>+>;>>+>#>=>;o;;*o**;;>%%>>;>;>>o%=%+++==%%",
"+===+>*#;>>>><<;>**>=+;>%;<*;;%=;<;*<*;*;**#<;;;*;=;**;;;>>>>%%>>%%;>>%;;+>-<#-+%;*;>;>>>;;>>;;=>*>>;ooo;;;+>>>*;;;>+;;;>+%%=+=%",
";>>>;#*>++++=*#>;#;;>*##>*-;>%%+:1<;;<;oo*<<<;*;##;=+1#;>o>>+%%>;>=+>>>=>;+**o*#++;;;;>>>>>;>>>++>%>>;o;;*;>;>;;;;>>>*-;;>+++++>",
";;**+==%===+>#;;;;;;>*11+**+>%+*1$:<>>>;<<-##*;oo**o+;>+>>>++>%+>>%%+++%+;>;;;>;o+>*o>;;+>>>>>>>*%;#>;;;>>>>>;*;;*o;>>#*>>>;>>;;",
"%%+;+%+>++>>>;*;o;o>>;*#*-*>>%+>*1<*<*<-<*<**o*;*#o;##*>>>>>;;;+>>;;*>>;>;;oooo>;;>o>>*>>;>>;>>;;#*-#;;>>;o>;**+>;;o>+;<>>>+>;>+",
">>>++>>>;;*;>;*;;o;>*.**<-1<>+%%>*<<O-.#;*o*+*<*;<*o;<;>+;;;*>;>;;;*#1-<#**;;>;>>*;;o>>;;>>>>>+>>;;<#;;;>o;o*>+%>;o;>+>##+==%>*;",
";>+%++;**==*;;;ooo;;;..;#-<o>;>++*O#<<**;o>;;>>**;*;*;*>>*#**;+>>>>>;#*-<**;;;o;>;;;>+>;;*>>>;>%>#-;;;;;o>>>;+%+;oo>;=>;<#>+%+;;",
">;#;>*>>+>++;>>;>>;o>;o>o*>>>*>%o*.;o;o;;>>o*>+>*;;;oo*;>;;>;*>>>;>+>>>>>;<;;;o;;;;*>>>>#1#;>*>++*1#<<;;*o>;;++;o;;=;=%;*#;o>>%+",
"**<<**;>;1#>*>;>>;;>>>>>o>>>>>+>>;;<#*;o>*oo*o+%>;;*;+>*;>>>+;;>>>>;>>;*>%>;;***o;oo>>>*<-1<>+%%>*#<O-.*;;>*+;;>>;;%;+=o;*>++%=%",
"**-1<*;;**;;;o>>;>>>>>*>>;>>;>>;;<*-#;;o>oo>o*;>;;#*o+%;*;>>++>;>>;;>>;1<===>o*;o;oo;**#--*>>%+>#1<**#<.<#**;;>>+**+o+ >o>>++%%+",
"<<.-<#<#;>>;;;>;;++;;>;;+>;>>>>>;%;<>***>>>>>;#****#>+ %o**>>%%>>>>;;;;***+>*;*oo*;;*<#*;;>+>++*1-O<>>>;*<<o*>+>;;>%>+%>;>+++++>",
"*$$.<<;+==+#*o;;+%;;;;>>>>>;>>>++>+>>;;;;#o>;>;*#;oo>+==%;<;o+%=>>+;*;>;*<*>>;<;;*o;#**o;;#o>%%+11.-**;o>;#**>+;+oo+;>>;;++++%+>",
"o;*-#;>>= >-<#<+%>;>>;>>>>;>>;;+>*>;;>oo;;;>>>>*o;;o<++ =;#*o++%>>%>;;*;;**++>#*o<*;;*;oo**;;;%%;---++>>>**o**;++;#*;#;#o++%%%>>",
"*o>oo>>>= <O-1*%+*>>+>+>>>>+>*>%>;;;;;**;*;>%+>>*>*o<*+==;;;*;+%%>+>;;**;>>=+;<*;*<+;;;*;*;;*##+;##>=+==%-*>*<>+>;<#>*+>+%%%%%**",
"--<;>%>+==--$.>>-*o>+>>+>>++++%=+;**;;*>%>**;>><<;o;<.+% %+>;;++%%+>;;;;;;*%;;#;>;*>+**;;;;o;;<;>#;%%+++>-o>>>+>;*+=%>=====%%%;*",
"o;.-*%+;=>##.> #1*>+;;>+++++;>%=+>;;;*+ %*<o;*#1##o*.<o%%%=%>>;;;+>*;>>;;o;%>;o*+>*;%+++*o;>*oo*>><;>;>+*#o>>>;;;%===%%=====>>+;",
">+>#*o%>+**#*=>#;#>>>>>+>>;>;#>%+>>>>*>>;*o>#;><#;*;<<*++;%=+*<<#*>;;>>;*;>%%o;o>%o;++++>**o<*o;;;;-*<###*#;;;*+==== =++=+++;;;;",
"*>+= +;;>;;<>>*;>>**%++>;;;;;>+=%%+>;;;*;*>+;<##<;*;;<<;%;;+>*-1O<;>;#;>**>%%>***+%>o+>> >>*$*;;;#>>;;;;;;++++  %+>%=+>;>>o+;;>*",
"*>++>+o.;>oo>;;;*>>+=**>>;;*#>%==%>**;;;>>>+>;#*<*;#;;**>>;>;;#-11<;>-*>o;;++;*#*o +;*%%>>+>*<*<<;#;+>>>>% = =+;++;+%+>;>;>%>+<-",
"+>>>;;;;o>;;*#;>;o%%>**;;*#*;>%=%*#>***;>%+%++;;**<**<+o*>>>;;;;#-O#;>;;;;;>>;*#**%=oo%>1*+%o#<-<;;o%>+==%%=><;;>%%%>>>o>;%>>+>>",
"<#;;;*;>;***#*<*++>>>>;>>*--;*%+*#;*##<**>;++>;;>o;;;<>;o*++;o;;;*#<-*>;;*o>>*;;;;>%>*;+**++>>--#oo>++%=>**+>>>;+==+>>;>>==;-#;;",
"X1<##**o;-#<;;<>+>++>>;>;**#<*+-##*;;;*>o#;;+++>>>oo**;;+;>>>>>;>;**--*>;*#;>>;***>;o;#>>*>>>>;*<#;>>*++;*#*;;>+%==%>*o>%+;>#-1O",
"-*;;o**o;#-<=%+;;;;*<*>>>*;+>+-1#.**>>*>>;;>===%;>>**;;o>;;;>++>>;*#;*1*>;**;>+>>>+>>>#;>;;;*>;o;#;;>*>%>>o;*o>+%=%>;;>+>;+++>;#",
">>+>;o*;o*<;*+ o##***<*;;>>+%>*#<#*<*>*;%>*>= %=+++;>>>;>;o+;;%>+>*##>*-;>>;;*>++++>>*<;>+*##o*<>%>;;>;+%++>>>>%%+>+>+%;>%==%%+>",
"+%+;o>*;o*<#<1*+%>>>>>>>>>++%+>;;*;o;#**>>>% +;>=%;;+%>>>>*++o>>=%+>>>+##o*;>>***+**;-<+++**o;-1-*>;#o>>===%+>%>;;+%+>>*;++==%%+",
">+>>;;>*;*<#<$<**>+%>>>>+%;>%%>>;<#>+>o*oo>=+>;>>;;o+%%++%>*>=>+%===%+=>*;;#*>>**o*-;>+>+>;;;#$XX-#;;;>>+= %;>+>>+%>>>*1<>%+;*;>",
"*;;;**>*<;<<.*;;*<;%>;>>++*>=%+>+;>+++%>o>+=>>;*;;;+%%%====+;**>>+%=====>>+%;;+>;##.>+%+;>>;##*o;##;;;;;+==+;;;>++>>%%;<-+=>#;;*",
"#;>>>>>>#;;<***<<**>>*;;;;*>+++++%>>+>%+>>++>>;;*o++;+= =>+>+>;;***;>%  =%+==**;<#-<+%;<#>;**o>*>++*o;>#*>==;*;;>>;==%+>;>*;;;;#",
"*;#*;+++;*;;>*o-<<#*;##;><<>;>;>>;;;%>+%>;*;>>;;;>>;>+= ;-*>;o>>+o#<;*>==+>+ %*<#-*>%+*-1#**oo;<<;>>o;#.<;+=+>**;;+==%%+>;<<*<**",
"*o;o;#>o;#;>o>%;<.##;#****#;%=+-*;>;>>+%+>*;;;;;>+++;>+>;>>%=>++>>;;<**>==>>%=>*;<;=;*;;**>>+%%;**o%%+o;;;*;=+;>+>>+%+%+>;;*#-<#",
">>>>>;##*;**oo%%..*;;*;*;>;<#;=*#>;;>>;>+>>;;;o;*>=>*;**;;;>%===%++>>;<*%==%==>;o$o+;#*#>>+%+>+=>> =%+>;*#*;%+#>%+>>++++>**;;*;o",
">>##>>o**;<*;o>><1<>o;o#;;>#;<=;*>++;>>;>>+>>>%>.>>*;;o>>>>>>;+;>%>>>o*<*+%==%+><:+;**<#;>>+>;>=>; =%>>;#***;%1*>+>;;>++;##*;;+>",
";>*;+o>>>>*o;>>;*#;;*;oo*;;>;#%>;>+>>>>>*;*;*;==+#*>;***##*>>>;;#+;#;>>##>>*>>+>#1+;<*#<;;>>>++=*#>+++>;;;;;;+<*;;;#<;>;###*;>>;",
">*#>>+>>>+>>;#;*o>>*#o>;o>>>>;++*;+>>>>>;##;*;%>;;;*<<<#<<#>>>**;;;*;+>>*;;;*;;;o;;+>+>;o>;;+%%%>;>++>;>oooo>>;;***<*;;;;;;>>>>;",
";#oo>+;>>+>+*<;;o+>;;o>>>>>>+;>%*;>%>+>;;>>>>=>;oo;<-$$-<#*;;>;;;+>>>+++**>>#*#*>>*>=%%;o>;>#;==%+>++;;o>>>>>;o*##**;;**>;>;>>>;",
"o;;;;*;++>+>*;*>>>>;>>>>>+>++>;+;;>%>>++++>>>%+;*#<-$O22:-*.*;;>>>>++>;++>;+***<*;;>+>%o;;>%;#>>++>>>>+;;;;>;;;#<<##+;*>>;;>;;;;",
"*;;*-<;;;>>>>;<;*>;;;+>>++>+%%;;+;;%+>+%>>;>;#;*-OO<.OXO1.*<*##;;;>>>>;*+%+>>+><O*>*;+>%;;o>%>;;++>>;>********<:<o>>;>+>;;;;;;;#",
"<<<$1.<<***;>;;*<*#>+;;>%%*#+=>#>>;++++%>>>;;*##<-.*#$-.#<o*<#<*<o;;>;;*>++>+%+#-<**>+++%;;;;=>;>>>>;;**-.<<<<.$<;;;<>>*;;*;;<##",
"<#<-<<--<1*;;;>;*<+%>;>+==>;=>+>*>;>+++%+;;;;;*<***<#**###++##**<#<**<#;;;>>>++;#<*>++>>=+;;*>=>;;>;;**#1O--.<.#;<<#;;**;<<<<--$",
"*;o+%>*<#-<.*>;o;o>+#*>++>;++*+>>;*>+++%%;;;#;;;;**<<;o>o>+>>;o#*;#<<1-*<#;;;>%+*<*o%%>>>=>;**%%##>*>;;*$$-1..-*<*;;;*.-#11#-<-#",
"*;#==>;#*;..#*;oo;#o#.#;#;#*=+++>;<*++>%=>;*;;>>>;*<;o;>>>**+++>o**#*###-;;;;>>>;<#>>%+>>>%>>;;=o<;#*;**#<*<-.<*;*;***#:-<<#<#<;",
"<<.o >**;*##<.*;;o;*>;*;#**-;>>>>;*;;;>+%%>;**;;>;<<;;;*>*#>>*>%;;*;;*#;*###*;**;#*;*>>>>>>+;;*=%#*#**#;;o;;*.<###*<<<<#<#<*<1#*",
">+;<#+;;o>*.<.-<o>o;-.>>*<#o;*;>;>%%+*;++>;*#;;>>;#<#*<<*#*>*-++*>>**oooo<<$-*#-<+#.;;>>>>++;;<;===+>*#*;><<*<#.-<*.$.-*#**#***>",
">=  ;<+oo>>**;#<*;>>*:X:O$* +>+%++==%>>;>>*#>+>>>;*;o*.$#o++>+>;>;>;;<***#*<-$<-*%***<;+;>>>>>*1;%%>;;;;***<<*><-.1..*##*<*>>>>*",
"=%+>=><>>o>+o*><$*>>+>-.-1*>>++>;;%=%>;>>>+>>++;*;;>>*#*;* =++;>;o>>o;#****o#1.#>+<<**#>>>;;>;***<;>>>#**;**;;*>.$O.;*;;**>>**oo",
">;;#+=;#>+>>>;**<<;*+=+#<<1>+>>;;;++%+;>>*>+#;*;-#;>>;<<> %><*>+;o;+>>>>>>;;o.--*;O-*<-*>;;;;;>>##<>%>**;;;;;>;**:-*;;;o;;>>#o>>",
"o;;;;o%>#<;;;;#o#**;+>%+#-<*%+>++>;;*++*>**>;<**;<*;<.<>=>;;;;;>;;>>;;;;;o>*>*>*<-1.<-O<>>>;;;;;oo>++;;;;oooooo$$#<>>o**#;#o;>>>",
";>;*o**>=;-##*;****#;;++%#-#>+;<;;;>#>%+>;>*###*****1$>=*#*o*;>>;o>;;*;;**>*#*%#OO1.-<#***+#*;;#*o;;+>;;*;oooo<$1*+>+%*******;>;",
">;;>>>>*+=*#*o<$<*<<;+>*+%<*;*;<*;>>>;*;>++#-#*#O.o<<* ;#>>>>;;>>+++>o;;;*+>*+;:$$.<<<<<<1#+#;;o;;;*+>;#*;;<*<.$<.>+>+<<<#*;*#>>",
">>#>>>+>#++#*<.:X.**o>;>;;*<;*;#;;>;****>;;>*#-XX1#**++#>>>>;*>=====%>>+++= >>>#--.O:1<<<-;;*;;>>>*+>;;;o;;<<$.*#-#+;*-<<**>>o;>",
";>;o++>><;=>*;;<X,.>#*#<-#*<++*<;>>;*<*<>+*;>-,X*;**>=;<>+++>>==    ===%++>;*#+*<<1-1$#*;;;<*>+>>>**;*;<*;*<<**;*#*<*o>>++%  %+;",
"o;;>+%+>#*=>*<<<#<*o*.-.1<;*->;#*>>>>**-;%+>;*<#-<#*> **%=== =  =%+%+>>>++++>>+;-O.<.<;**;;>**>>>>;;*<*<<*.*o;o>>>;<-;>;o>++%>%>",
"*#;>>%%>+;>%;$-$#>>;*<*##<**;*;#*;*#+>;*;+=>+=>*1$1;%>>=== =+>>+++>;**>%>%%+++;#1.#O1<#<$*;>+>>;;*#*<<#-$*<<oo;>+>#<##o$;>>>>>%%",
".<<;>=%>>>;*%#$#*><1#;*;.$#;>*<<*;**+>>%;>=>;+%;*-#%*+==+%%+>;>=+>;;;;>>>%%+**-<O:<##-<**#<#>+#*#*<#<**<<o;;>>>++;#<#;>o+>;>++>>",
"o***+==+>>>+ >**;;*.*<<**$.<;>##*>;>=;*%;*+%>;*+*#+ =  %++%+>>>*;>%=+*;>>>;***-$O:$.<*<-.<#<;*<####o*ooo;*>++>+%>#-<*#;++;*++;;*",
"+=%>o++++;;>+;*-*<*;<<<<;o#<*;;<#>>>%>;+*#+=;#1*#;>=  =>;;;;;<;#;++%%>*;;;#;;#**##1:1-$:XO$.;<*<#;;o>o>>;*+++>>+;#1*o*;>;;>=+;;>",
">>=+<*>++;+;;;o*<.<<$-:.*oo*+>o;*;>+%>>=;#>%;**;*>o==+;*>>>>+>;>++;>>>;*#*>>>** >;*<<-1:&&:-#.**;>>>>++>o++>;+***-*>oo;oo;>=+;>>",
";o%%;>++>;>#>*;**>*..1XX-#>>%=;**<>>%;+%>;;;>>;#**+ #<;*>+>;>;;*;+>;;;**#*#.**;+>*oo;<.---<#o;;oo*o>>>>+>+*#>>*#*<#o#*>+>;>;;+++",
">++=%%>;>;>;;**<<>>+*<-1$<*>+%>*o*>;>+%*>#**+><<#+%*#>>o>++;;>;;;+%+*;;*<#<-<<*#%>o;;*<.<#<#<o>>*#o;;*;+>;*oo;****o>*>+== =>>>++",
">++=%++++>;;*><<<<*#;*<*#<.;;++o>;;;;+>;+##++=*<;>;o>o>>+%++++>>>=+>;;;*#<<<*;*o  >**o;*#*#<*>>>;;*+;#;>>#*>>*;;*+%%++%=  %;>;>>",
";*#>o>>>>>;>;;;;#<;*<@.;<#<<**;o;*#*>*-*+;*%;>#<+;*o>o;+++++%+++= =++>+*#.#<#;>>%>1;>#oooo>>>>>;>*>+>>>>#<*+>##<>>>>o>>+==>**>;;",
"o>;;;;>>;>*;;*<*>##><$$O**##.<;*<#<>>;;*+o#>>*<>*<*;;*>;>>>+==== ++====+>;<*-<**#*;; >*;**o;o;===%+++>>;<#%>*;*<+>;;;>+>+>;-#;>;",
";++%=>;**>*<#*<<#o*>>*.-.=>;>*#;*<<>*%%*>;#;+#;#<<*<##>#*>%==%==>;;+>>>>*>-*<<<--#o>>+;o+>;;>%=>+o;;;;##*#%;*##;>=+++#>;**>>#o;o",
"o;;*>= >#<**+*<***o>+;#**%%o+o;>>***;++>>;<*>;##*<*+;*<#>==>;;;;*****;*;#**<--#-**>++;o+==o.*>*>>*;>#<;*;>++>o*#*;%%>;>;;>+>+;>;",
";o;;#;+=+#%=;>><<;>+++>>>% >+>>+><<* =>>;*<#+>;<<>+==%*+=+;#;;;###;;#o;*<;>*<-<*<$#;;;*>= %>+>+>;*++*#*>>+;*#<1.#<o=+++>>o%>+%+;",
"+>;*o;#;= =+>>o><#;+>+%%== ;>%%+>#-%=+;*#*>>+;#<o+=  = =o#;;>>>>>>>>>++>*+**o*<#-$<>>>++>+====+;;+=%+o>=;>%>;<1.<#o++%+++++%>>=%",
"+=+>>;;<<*;#*+%;;;*;>>=== %>>=%>;-++>>;%++>>;*;;; =o#o*<<;>+*;>;>>+%+=%%+;o>>>#<***+===>;+++%  ==%>;;o%><;>>>**#-<>%+%%==%%>%>+>",
"o>>+%>>;-#*<*>=>;;*#+%++>%%%>>>;** ++*;=o;>+**;;+ >*<*<-o>+>*#;>++%=%+>++;>>>;o;+%=+%%+>;;#;>%%+>**#>%=>;>+;*#<**#*+++>+=%%++>>>",
">>>>+>;o*;;*>;*==>;*>>>;#;+%>#>>*%%>>*>;1*+>*;>=%*;>;#o*;>>;;;;;;;>>+;>+%++=++% %+>>++++;;;>>>;;;<;o%==+>;;;#**;++#;>;;#;++%%++>",
";>>>>;>>;o;;o;*o%%+;;#;+>o+>>;>*#+++>++;*;=+;+%%>;;;#*;;;>;++#;*o>>>>+%;>>;>+++%>;;>>o>+o*#>>>;**;++=%>;;;**>;**>>;<;;;;>>>>%%++",
"o>;;;;;;;;*#*;o;>+>;<*+>+=>;;;**>>++>#;o;>%+>>+>;***<#**;;>+>;>>>>>>;;;**<<*>+>>;*;;;;;;o#*>>;#**o%=+;;#*+o;>>#;.<;<<*;;;>>>>;;;"
};
