/* XPM */
static char *d80f9884335c451cc374922c04d90a58sb3BPm43jtM4Gdl1[] = {
/* columns rows colors chars-per-pixel */
"128 128 64 1 ",
"  c #040204",
". c #5C6244",
"X c #2C361C",
"o c #949294",
"O c #4C3A2C",
"+ c #7C7E64",
"@ c #4C4E4C",
"# c #3C462C",
"$ c #1C1A1C",
"% c #6C7254",
"& c #A4A6A4",
"* c #3C3A3C",
"= c #64523C",
"- c #646264",
"; c #4C4A4C",
": c #7C7E7C",
"> c #242624",
", c #141214",
"< c #343E24",
"1 c #9C9E9C",
"2 c #54563C",
"3 c #444E34",
"4 c #6C6E6C",
"5 c #B4B2B4",
"6 c #8C8A8C",
"7 c #646A4C",
"8 c #343634",
"9 c #949694",
"0 c #544234",
"q c #444644",
"w c #242224",
"e c #ACAAAC",
"r c #444244",
"t c #5C5A5C",
"y c #6C6A6C",
"u c #5C4A34",
"i c #848284",
"p c #2C2E2C",
"a c #1C160C",
"s c #545654",
"d c #747674",
"f c black",
"g c black",
"h c black",
"j c black",
"k c black",
"l c black",
"z c black",
"x c black",
"c c black",
"v c black",
"b c black",
"n c black",
"m c black",
"M c black",
"N c black",
"B c black",
"V c black",
"C c black",
"Z c black",
"A c black",
"S c black",
"D c black",
"F c black",
/* pixels */
"p**8***rr*<*****r**rrrrrrq;rq;rr;;;@@@@tsttstssttststttttstttttstttttstttttsts@ttttt@ts-s22;;;;@@@@;@;;*@;@rrr**r#*r8*#*******8p",
"p---4y44dsp*8**88*88*8s:dddddd::::i:iii6666666666666666664;@@@s@@s@@s;466666iii66666i666id:i::iiid:diiddi-**8888*8*8*ps--4-4y--*",
"8-t4444:d-@tt--sttststydi:d:diiiii:i666666669o9o9o99o9o9o:y4d444444d4yio99o6666699o969996:iii6iiiiii66::64tttt@@t@sts@-yy4y44t48",
"8-y-4yy44ddi:iid:::ddddd44d4dddi::i:ii:iiiiiii66666666666666oooooo6o666666666ii66666i::i++diiii::::d::ddi:i:::44d4dd44y---4-44-*",
"p8******r*qr;qqqrqrrrqrqr;;;;;;;;;@s@@s@sssssssstttstttttstttttttr**p*qtttssssssss@s2222222@@@@q@@;q*8>>pp8ppwwww>*r**#*88*****p",
"8888888********qrrr*******rrr*rqq;;;;;;qs@s@s@s@s@ssssssssstssss@stttt@ssss@st@ts@ss@333q333;@;*q;r*pppp8*ppp>p>p>>r*8<8*p88**88",
"p*8**8****q****qrqq*88*88****8rq;;;;@@s@;@@s@@@tstststs-ss-tt-tt@-----sstsstss@stsst@232qq3;qqq*qqr*q@0u00;t@@;r;;**8*pp*8888**p",
"p*8********<8<**rrq***qr*******qqq@;@@@@@s@@@@@@tstsssstsstttttt@-----sststststststt@32q@@qr;3q*;qq*rsuu0uu;@@@;;q88*8pp*8p*8**p",
"p*****r<******q**#r*8qqqqqqqqqqq;;;@@@;@@@@@@s@@tsssstststtttttts---7-ststssststsssts32;qqrr2qq*q;r*r@u=0uu;s@@;;r*88**8*8*8*8*8",
"p****<******r*qqr*q*q*q@qrrrq@;q;@;qq;@@s@@s;@s;tts@tststsst.tt.t-.tttsstsststsststs@33233qqq;r*qqr*q@==u0O;@s@@;q8*88<*888*88*p",
"p*8******#**qrr8*qrrrqq;@;qqrrrrq;;rq@;;;@@s;s;@@tstsstssst@s@stttttstssstst@@tsts@s;qq233qrqrq*qqq*r;==u==u@;s;;;*8**8p**88*8*p",
"8***r************qrqrrrrq;qq;qqrq@qq;q;;;@@s;@s;tststsststsq@@@ttt-tssttssts@@ts@@@2333333r**rr*qqr**ru00=0;@@@@;@***8*8p**8*88p",
"p**<***q*******#rrrrrq33qrrrq;q;;qrrq;qq@@s;@s;@tsssstststssststtqppttssttstststt@@2223qqO8**qr<r;r**q00u00;s;s;;;***8*88*8**8*p",
"p8*8*****88pp<88****q883****qrrrqrqrrrrr@@;;;;s;@@@@tststss;@;@st>  @tstssts@@t;@@233;rO88**#**88**88*0OOOO;;;;;;q*8*88*8*8*8**p",
"$$$>>>>>$$$$$$$$$$$>$$$ww>w>>>>>>>>>>>p>pp8p8pp8p88*88*88*8p*8*8*>$,88*8*88**p*8pp88>w>>>$>>>$$$$$$$>q;;0;;;;;;r;;p>ww$$wwwwww$$",
">w>ww>>w>$$$$$$$$>$$$>>>>>>>8p8ppppp>>ppp*88p*8*88*8*****8*****8qq*********88*8***8pXp>>w>ww>w>>>>$>>3rrqrqrrrr*r*>>>www>wwwwwww",
"rqq;;q@qqq*#*#**#qq*qqq2@s@tstststtsttttt----------yyyyyy---y4--44y-4444444---------t.@.s22q;qqr;r#;2q;;;;;@@;qq@rqs;;q@;;qq;q@;",
"@@s@@s@@;q@;q;qqrqqqq@@tttttt--tt--t------yyyyyyyyy44444444dddd4d:ddddd444444444yy----%.7tstt@@@s@sststttsttst@ts@@ts@@@ss@tss@@",
"q;r;;;;;qq;qq@q**qqrq@@@sssstsstttsttttt-----------yy4y4y:iii:ii::i:i:i4yy4y4-4-----t-tsstsstss;s@@@@@tssstss@@@@r;@;@@;;;;;;q;q",
"qqq;@;;@;@;@@;@@q;;;@@s@ttstttttttttttttt----------4yyyyy4dd:dd:44ddddd4yyyy4yy--------tt-tt-ttsst@t@@tstsst@@;s;;;@@;;;;@;@;qq;",
";;;;;@q@@@@s@ts@@@@@@@@@tsssstssstttttttt--4444y4y4yy4y44y44y44444dy4dyy4444y44y444--44--4-44ttststst@@tstss@s@@ts@;;;;@;;q@;@;;",
"q;@;q@;;;@@s@sss@@@@@ttsststsststtstt.t---44yyyyyyy4y444dy44444d:d4y4d4y4d444y4yyyy--4y4-4444-ttts@@ts@tsstt@@@@ts@;;;;;@;@;;;;;",
"q;;@@;;@;;@@@@@@ss@s@@stststststtttttt---7--y-4y4yyy4yd44444d4dydd4y44d4444y444y4y44-4y--y-44-tttsttstststss@@;@ts;;@qq@;q@;@q@;",
";;@;;;;;@@s@@s@@t;@@tstsstsstsssttt.ttt.----------4yyyyyyy4y4yyy4d4yd444yy4yyyyyy-----.---ttttttssstsssss;;@@@;@tt;;;@q;@q@;;@@;",
";;;;@;@;@;@@@@@@@t@@@tstsstsststtttttt-----------4yy4yyy4y44dyy44:yy44dydyyy-4y4y---------tsstttststststs@;@@s;@s;@;;q;;;@;;@;@;",
"@;3;;q@;;;@@s@s@@@@@@tstststststtttt.tttt-----7---4yyy4yyy444d4y-t4y4dy44yy4-yyy4---s----ts22ttssststssst@@@s;;@t@@@;;;@;@@@;@;@",
";;;@;@;@q@@;@@;s;t;s@tstsssssstttttttt-----------4yy4yyy4yd444dyy-4ydy4dyyyy4-4yy---s.---.ststtsstsssts;@@s;@@;@@@@;@@;@@s@@s@;@",
"@;;;;;q@@@;@@s;s;@@@@tsststststtttt.tt------------4yy-4y4444dyyy44dy4dy4dyyyy-44y---------tt.tt.ssts@ttttst@s;;stt@@@s;@@@@@@@;;",
";@q@@;@;@@@@@s;@@s;s;;tt@ttsststttttts--t--------74yyyy44d44yd44dy4dy4dy44y---44-tt7------.-ttttssst@ss;t;t;@s;@t;;@@@;@s@@@@s@@",
"*q@q;;;;;;s@@@;s;@s;@@@ttsstssttttttt-@t7--7--7--44y74y-4444dydydydydyydydy---44t.t-------sstttststststs@;;@s;;@@@;;@@@@@@s@@@@;",
"rqq@;@q@@@@@s;s;s;@s;s;tst@ttstttt.tss@s--------44-44y-s-444dy4d--y4dydyd-t--444----------sq@tttstsstststtt;r;;@s@;r;;@@s;@s;s;;",
"@;;;;@@;@@@@s;@s;t;s;ttststssttttttt-s--s--------44yy--44ydy4dyyy4dy4dy4yy---4444---------tstt-tttssstssss;@;;;@@sr;;;;@@s;s;@@;",
";@;@;;;;@s@@@s;;@t;@@tst@tst@ttstttts-ss---7--7--4-44-44y4444ydydd4dyydydyy-4y4dy4---7--7-ttttttttstsststs@@@@;@s;;;;@;@s;@;s;;;",
";;;q@;@;;;@s;;ss;t@s;tsttstststttt.tts---------4-444444y4444dydyd:yydydy44yyy444y44-------t7tttttstsstsssttt@s;@;s;@@@s;@s;s;s@;",
"@;@@;q@@@s;@s;;@@tt;@tsst@ttsttttttt-s---------4-4dd4yy444dy4dy4:dydydy4dy4yy4ddyyy------7---t.tsttststsssst;@@s;@;@@;@@s;s;@s;;",
";;q@;@@s@@@@st;s;@t;@@tsttsststtttts------7--4-44-4:44yy4444dyd:dddddydy4dyy44ddyy4---7----tt-ttsttttsstst;@@s;s;@;s@;s;@s;s;;s@",
"@;@;@@;@@@@sst;@stt;ttt@tst@tttstttt-s--7-------444d4y4y44dy4:ddiiddyydydyyyydddyy------------t-tssttsstsst@@s;;;@@@s;@s;;@;s;@@",
"q;;;;@@@@s;;;@s;tst;tsttssttttttttttt-7-------44-44:4yy4d:ddddi::iid:ddddy44y4dd4y44----7-----ttstttstsstst;@@;tt@;s;s;s;s;s;s;s",
"*q;@;@s@@@s@t;;@tsst;;sstsstttttt.ttts@s--4----4444d44-td:iiiiiddddddddd:dtyy4:dyyyy------ts.--t.ttsstsstss@s;s;@@;;@;s;@s;@s;@@",
";;q@;;@@s;s;tt@@tts;@ttstst@tttttt-s-ts-------44-44:4y-tdi:dddddddddddidddt-y4ddy4y4---7--s@stttsttttstsst;;r;@@s;;r;@;s;;s;;s;;",
"@;@;@@s;@@;tstt;tst;tsst@tttttttttsttt--------4444444y44di:idddddd:d:ddddddyy4ddyyy4------ttttt-sssstttsst@@@@s;@s;;;;;@s;s;s;s;",
"q;;;;@@@s;stsss@tss@tstststststt.t-stt-----7---4-444dyy4d::dd:dd:dddddd:ddyyydd4yyyy-----4--ttttssttttstsst@s;s;s;@@@@s;@s;@;s;@",
"q@;q@@s;@s;tsttsststsstsstsstssttts-tt7--7---44444444yy44:d:ddddd:ddd:ddd:yyy4d4y4y4---------7tts-sstsstsst;@@;s;@s@s;@s;;s;s;@;",
";;@r;@@@@@@tssstsststsstsstss@ttttttttt-------4-4y4d4y-4444y4y:dddddyyyyyyyyy4:4yyyy4-------ttttsss@sstststt@s;;s;@s;s;;s;s;@s;;",
"@;qr@@s@s;s;;@t;tsststst@tsttssttttttt--------4-44444y4y444yyyyyyyyyy--yyyyyyy4dyy4-----7--.ttt-ssss-ststss@@;@s;@s;;@;@s;@s;s;s",
";qqrq@@@s;;s;s;;tst@tssttst@ttttt--t.tt7--4----44y4d44y44ddi6iiiiiiiii-yyyyyyy4yyyy--------t---tsssssststsst@@s;@;s;s;;@@s;;s;@;",
";rrq@;;@;s;@s;@@tsttstsst@ttttttttt-tt---------4-44444yyy4:iiiiddi:ddiyyyyy-y4d4y--------ttt4s-tst@st-ssstss@@s;s;@s;;;s;;s;@;;@",
"@;@@@@@s;s;s;tttsssstststtttt-tt--4---------4444-4y4d444dydd44yyyyyyyydyyyyyyyyyy4y-4--7--7s---s@sssssttttsttt;t;t;t;@@@s;s;s;@@",
";@@s@@tts;tstsssttttttttttt---tt------7--44444-4444444d44d:ddd44dddydyyd4d4y444yy44y444444--ttsss-t-ttttttttss;ttststtttsttsts@@",
"$>p*r*rrrrrrrrrrrr;rrrrr;rqq;@@q@@3@@@s@@@@@s@sssststtttt-----t-t-tttttttsttttttts@@@@@@@@@@@@s@@qqqqq@qqqqqqrrrrrrrr*rr***r*pw$",
"t-r>8ppppppppp*8*8888*8*88*88*8*****8*8qqq8*qqqqq;rqqq;;@@t@@;****;r*8*88888p88p8*pp8ppp>p**qq88888***8888*8*8p*8pp**pppppppwr-t",
"-4r,$$$w$$w$$$$wwwwwwwwwwwwww>w>>>>>>>>>>>p>>p>ppppp8pp8ppp*p*@@;tp*r********88****888*p*8>>>>>>>$>>>>$>w$$$$$$$$$$$$$$$$$$$,;y-",
"--sqrq;q;;;;;;;;;;@;;@@@@@@s@@@@@;@@t@ssssstttttt-tttttt-----yi6ii---tttttt;@tsttts@ts@s@t@@@@sst@@@@@;@@@;q@;;;qr;;qrq;r;r;rs--",
"-4;p8p8*888*8*8*8**8******************qqqqqqqqq;q;qq;s-4yy4yt;iii:@--sttst@@tststs@@@@@@@tsst@t@@@t@ts@@@@@;;;qq;q@q;rrrrq;qrt--",
"--@*rrrrrrrrrq;qqqq;;@;;q;;@@s;@@@@q@@;q;@@@ttstsstsst---4yy--:iii-4--tt-tttttttttttt;@ttttsststtstsstst@s;;@;@;;q@;qrrqq;qqrs--",
"--@*qrrrqq;qq;r;;;;;;;;@;;;q;qr3;@@@@@@@@s@@sttttstttt-----4t4i:i64---------------tttr;ttt@@tstsst@@s@@@@@@@;;rq@q;qqr*qqrrr*@--",
"--qp***********rrrrrrqrrrqr**rq##qqqqqr@qqrq@@@@@@@t@t4--44y@t:ii6--44444-----------tqsttt@q;@;@;q;;;;;;qq;q;qp*qrr**88*****pq4-",
"-4qp**q<p>wwwwww>w>w>w>>w>>w>>w>w>p>p>>>>8>>p8p8p88*pqtsttt-qsi:i6tqqqrqrqqqqrqqrqr**p8*8*8>ppppppppppp>p>>>p>>ww>>>>>w>w>$>$*-t",
"--@>8ppppp8ppppppppppppppppppp<ppp***8**88**88*rrrrrqrq;q;q@r-i::i-*qrqrr8*8**8****88***88*8***********pp*8*8*pppp8pppppp>pp>q-t",
"--@$ww>w*@;;@;@s@s@s@st@s@s@@;;@@tsstttsts@tttt----4---y4yyy4dii:6d-4yy4y------------t---tttt-----tttttsststs@@t@@t@;@;@;@;;;s-t",
"--sqrrrq;q;q;@;;;@;;@@;;;;q;;;q;;;@tssts@;@ttsttt------------4i:ii4-----------.---ttttttssststtttstssst@st@@@@;@@@@;;q;;q;qqrt--",
"-4@8r**qrrr*rrrrrrrrrrrqqrrq3q###3;r@@;@;;;q;@@tstssssttststs-i:i6-@ttttt.s.tstsst@ssss@@s;;;@@@@@;@;@;qqqrqrr*rr;;rrrr*****8q--",
"-4r>pp88888p8888888*88*8*8<<<<XXX<**qrqrrr**qrr;qq;q;@@@@@@@q-iii6-@@@@@@;;;@;q;qqqqqqqqr*8***qq***********8*8p*8**88pppppp8>*--",
"-y*,,$,$$$$$$$$$$$$$$$$$$$$$$$$aaw$$www>w>w>ww>w>>>>>>>>>>>p>ti:i6s>>>p>>>>>>>>>>>>>>>ww>w$$$>>ww$$$$$$$$$$$$$$$$$$$$$$$$$,$,*--",
"t4dd:d:d:d:d:d:d::i::::::i:i:iiiiiii:iiiii666666666666666666666666666666666666666oiii:ii:iiii::i::::::::i:dddd:ddddd:dd:d:d4d444",
"t4:4444ddddddddi:::i:ii:i::i:iiiiiiiiiii6666i66666666666666666666666666666666666666iiiiiiiiii:::i:i:i:i:i:id:ddddd:dddddd4dd4ddy",
"t4:dd:dd:dddddddddi:::iddi:di::ii:iiii::iiiiii6666666666666666666i66666666ii666666iiiiiii:ii::i:i:di:i:idddddd:d4d4444d44444444y",
"4iiiiiii:ii6iiiii6666:i6669oo966696699999999999&99&9&&&1&1&111&1&111111&11&111119919191999919999o9o9o9oo966666iiid6ii6iiiii6iiid",
":19ooo6666oooo99911&191&111e&&&&&&&&&&&&&&e&5&eeeee&eeee&eeeee55ee5ee5&e5eeeeeeee&1&&1&&&&&&&ee&&&1&1&&11111&111oo1&11111991991o",
"d6i:i:d::d:::6ii666o6i6oo9o991919191919191911111&111111&11&1&111111111&11&1111&1&9999999991991&9999o9o99o999oooo6io6o6oo666666o6",
"dddddd444dddy++d+dii:+i:i:ii66666666666666666699o999999o99o9991999969999969999666666ii:ii66669o666ii6iiiiiiiiiiiidi:iii:iiiii+:i",
"4dd:ddddddd:d+d+diii:di:i::iddddd:::i6666666669o9ooooooooooo66666iii69oo9o9o96666666iiiiii66:ii:id+diiiiiiiiiii:di::ii:i+::i++:i",
"4ii:i:iiiiiiiiiiii:iiiii666o6666666i:666666999oooooooo9o9o919999999969969o69o9999999999996699996666ii666666iiiiiiiii:::::i:::i:i",
"4i::::::::iiiiiiii66iii666669191991166666666669o9o9o9oooooo9111111&196999999o6969o69666666699999991966666i6i:iii:iiii:i:i::i::i6",
"di:i:i:i:iiiiiiiiiiiiii66666666666666666666669o66oo6969969999o99o999999oooo69999o99o666666666iii6i6i666666ii::ii:iii:::i::i:i::6",
"di::::::::iiiiiiiiiiiii6666666666666666666666669o999999o99oooooooo6iooo69o999o6o9oo666i69666i:i6666iiii6iiiiiii:iiiiii::ii:iii:6",
"dii:i:i:iiiiiiiiiiiiiii666666666666666666666996969oooo69oo699o9o969696999o69oo969o9i66:666666i666666iiii6iiiiiii:iii:i:i:iiiiii6",
"di:i:::i:iiiiiiiiiiiiii6i6666666666666666666699699o96999o999oooooo69999oo99o96969696696966666666666666iiii666ii6:iii:iii:iiiiii6",
":i:i:i::iiiiiiii6:6:6:6:9666966666666966966669999o6999oo969oo9o96999ooo969oo96669996699696666666669666iiiiiiii:iiiii:iiiiiiiiii6",
"4:di:::i::i:::i:ii:6:6:i:i6666666669666966969969o999oo96999o69o999999o6999o696669o6:6666666666666:6666i6iiiiiiii::ii:ii:::i::::i",
"4iddi::i::ii::ii:6:i:6:6:6:6666666666669666966669i69o6699oo669o99oooo999oo9999996666iiii66666666i66:6666i6iiiiiid::i:i:i:+didi:i",
"4ii::i::i::i:i::i:6:6:6:966666666666666666666666669o9969o69966969o9o9ooo9666o6969666i66666666666666i6669:9666iii:i:::ii::i::i::i",
"d:di::i::i::iiiiiii6:6:6::96666666666666666666666699699o999669699ooo6996999999969666iiii66666696666ii9666666i6ii::6::i:i::i::i:i",
"4i:::::i::::ii:6ii696:96666666666666666696999996669999o69oo69999oo9699o99oo69oo6966i6iii6ii96666669:6666666ii9:6i:i::i:i+:i:::ii",
"dii:i:i:ii:::iiiii66666666:66696696666669996:::::::i66999o9i969oo699oo9oo696iiiii:ddi66iiii+i666666666666669:6iii:ii:i::++:i:i:6",
"d:i::::iiiii:i66666666666669666666669966999996669696699o99969999999o69o969999999966ii669666i666966669666696666iiiiii6ii::+:i:i:i",
"i9oooooooooooo9999119999191111111111&11&1&1&e5555555&&&&&e&&&eee&&&&e&&&e&&e555555ee1&1111&11&111111111&199919919199999199999999",
":9ooooooooooo1999111999911111&1&1&1&1&&&&&&&&&&&&&&&&e&&e&e&eeee&e&e&&e&&e&&&111&&&&1111&11&111&1&1&1&111&111&9999&91&999999199&",
"i9o9ooooooo9o999191199111111111111111&&&&e&e&e&e&e&e&e&&&e&e&&&e&e&e&e&e&&e&e1&e&e&&1111111&&&&111111111111119991999911999919991",
":9991oo99999999999111111&1&&1&11&111e&e&e&e&&e&&e&&e&&e&e&&&e&e&e&&e&&e&e&e&&e&&&e&e1&&&11&&&e1&111111&11&1119199919119991999999",
"i9o99oooo9999199911&1911111111&11e&e&&e&&e&&&&e&&e&&e&&&&e&e&eeee&e&e&&&&&&e&e&e&&&e11&1e11e&&11&1111&9&1111&1999919919999199191",
":919991o6191o9o1o911919111191&&&1&e&e&&e&&e&e&&e&e&eeee&&e&&&eeee&&e&eeee&&&&e&&1e&&1&11&&1&ee&&111111911&11111&99999&9191o99911",
"i199999999991o1o11&1911&&1&1&&&e&&&&e&e&e&e&&e&&e&eee&eeee&e&eeeeeeeeeeeee&eee&ee&e&e1&1e&&&&e&11111111111111&11111&1111999191o1",
"d66o66666o66666ooooooooooooo919919999191991999199991111&111991&11&1111111111111999999999999199991991919999999o9o969666666666666o",
"4idiiiiiiiiiiii6iiiiiiiiii666666666o6666666666666o66699o999666996699969999o9966o66666699999o66o66666666iiiiiiiii:::+::i::i:iiiii",
"di::::::i:iiiii66666iii666666666666666666666666699699o9oooo999oo99o999o9ooooo99o9966o69oooo99oo999666666i6iiiiii:iidiii:i:ii:i:i",
"4i:i:i:i:iiiiii66666ii666666::::d:::i6666666699669o69oo9o9ooiiiii:i:oooo9o9o9oo6oo6666666666:d:::ddd:6i6iiiiiiiiiiid:i:i::::::ii",
"4i::::i:i:iiiii66i66ii666669666o66oi:66666669999o6999o69oo99999o999i69oooooooo9oo96996666669666iii6:iii6ii6iiiiiii:i:i::i:i:i::i",
"di:i::::i:iiiii66i66iii6666691999999o66666699969999oo999o6991&1111&e9o9o9o9o9ooooo9oo699966911119996ii6i6i6iiiiiiiiiii:i::i:i:ii",
"di::i:i::iiii6iiii66iii6666666666i6666666669999oooo969oo999o9o9o99oo9oo9ooooo699oo69969oo96999966666iiiiiiii6iiiii6ii:::i::i:i:6",
"+:ii:::iiiiiiiiiii6iiiii666666666o6666669999696996999o9699o9oo99999999o99o96999o6999o99o9o6oooo66o66666666666iii:i6iii:i:i:i:i:i",
"4dddddddd:::::i:i:i:i::iiiiiiiiiiiiii:6:i666666666666666666666666666666666666666666666i66666iiiiiiiiiii6::6:d:::+::id:dddddddddi",
"4------y--y4444444444444%44d%44d4%44d4%4:ddddddddddddddddddd:::iddii:ddddddddddddddddd:ddd4d4%%444444444%47--74--444-----------d",
"-tttt-tttttt-----------------44444444444444%4d4d4d44d44d4ddd:dddd44-d4ddd:4d44d4d44d44-44444-77-4--------------.t---ttttttttttt:",
"-tttttt--t-------------74-4-444yyyyyy%y4444444444444ddd4dddddd:d:444ddd:ddddd444dd44%4-444444-%444-4------------t---7-t---y---td",
"-ttttttt---------.-7-.----444-4yyyyyy4yy4444d44d44d4d:d4dd:d:ddddd:d:d:ddddd:444:d4d%4444444y44yy4y---7--7--7---t---s---.-----td",
"-t-tttttt------7-----------4-44y4-%4yy44444%4444d44d4d:44ddddd:ddddddddd:d:d4d4dddd4%d4d4d44y4y4yy------------------t---------td",
"-ttt.ttt-----7-------------444yy444y%4y4-%4d4d4dy444ddd4dyd:dddd:d:d:d:dddd:y44%dd%%%4444444y%%y4-4-4------tt4--.--7--7-------.d",
"-tttttt-7-tdid:dd::::::::::44y4-4yy4yy----4444444d44:ddd4-4ddd:dddyydddd:ddy-4d4:d4%4444444d-t-4yy--:6:i:i:i:d4:dd::-st-------td",
"-t.ttt.ttt.d6::i:i::i::6ii:4-----4%%4%%-4-%4yd44y44444d4444d4dydydyd4dy4y4d4yy%444dyy4ydyyyy----4%--:6:iiii::::dd::d-stttt.stttd",
"dddddddddddi666666666666696:::::i::iiiiiii6iiiiiii6666666o666666666666666666iii6666iiiiiii6i:iii::::i66666696666:o6i:d:d:dd::d::",
":i:iiii:ii:::i::::::i::::iiiiiii6666666666666666666o6o66666oooooo6ooooo9ooo66666966666666666i666666iiiii:i::::::::::::::::::::::",
"9o999o999999991919&&1111&1&1&11&11&1111&1&e&&&&e&e&&eeeee&eeeeeeeeeeeeee5eeee&eeeee&ee&ee&e&1e&1&1&1&11&111119199991999199199999",
">p*@@@@@@s@s@@@@tss@sssssssstttsttttt.-------y-----4y4444ddd44yyyy44y44yyy4y-----4------tt----ttss@ssts@@ssss@@@t@s@@s@@@@;@@*p>",
"ts*>pppp8ppp8ppppppppppp8*8*88*8*88*8*8**#8*#r*qqqrrrr;;;@s;;;*p8*;r8*8*88ppppppppppppp>>>8****8*pp*88*8X888pp8ppppppp8pp>>8>*@t",
"4iq$$>>wwwwwww>>>>>>>>>>ww>>>>>>>>>>>>>p>pppppppp8ppppp8**8*p*tt--8rq*********8*****8**p**>>>p>>>>>w>>>>ww>w>>$>>w>w>$$$$$$$,q44",
"y4tq;;;q;;;;;@;@@@@@@@@@@@ttsts@@@tsttsttttt--t---------yyyyyy6o6644d----ttssttttttsttst@4sssststss@ss@@@@@@;@;;;q;@;qq;q;qqqt4y",
"--@8p8*8*8*8888************qrqr*******qqqrqq;@;@@q;q;s444444-;4i6:@--tttssststsstssss@s@@t-st@ststststs@@@@@;;@;;@;@q;qrqq;qr@tt",
"t4trrqqrqqq;q@;@;;;@@s@s;@@@s@@tts@@@@@@@ststtttttttt-4y4yy4y4:i664-y----y---ttttttst@@tt--tt-tttttttttttt@@@@@@@@s@;q;;@q;@qtts",
"-ds*qr;r;qqq;qq;;;;rq;rqq;@q;qq3q@@@@@@@@@@@ttsttsttts4yyy44--4:ii4t444d4444444444--4r;y--s@sstsss@@t@@@;;;;q;r;;q;qqr*rq;rr*;--",
"ty@*rrqqrqrqq;qqqq@q;;;@q;qqq;q33@2@@@@@s@@@@ttststtss4-444dt-:di94t4--------------t-q@tt-s@tsstss@@@@s@@@@@@@8r@;;rr**qrrrq8;-t",
"-4qpqrqrpw>wwwww>>>>>p>>>p>w>>>>>>>8pp>>p8>ppp88*88*8qtsstt-r@i::9t8**********888888p8p8pp*>p8ppppp8pppp8p8>p>>>>w>>>>www>$w$*-t",
"44s>ppp8p8p8pp88*8*8*8**8*pp8pp8p*8***8**8*r**qrqqqqq;q@@;@@;-i6io4rqq@qqqqqqqqqqqq***rr*****rrrrq******8*8**8p8*8*8pppppppp>q--",
"t-s$wp>w*t@@@@@@tst@stsst;@t@@@@@tsttt-tststt--4-yy44y4yyyyyyddd:id444y4y4yyyy--y---------tt--------tttsttttst@tssst@@@@@@;;@@ts",
"t-s8*8**********rrrrrrrrr*********r;q;;@r*r@@@@@@@@@@@@@s@ss@-:::6y@@@s@@@@@@@@@@@@@@q@@@qqqq@@;qq@q;;qrqqrrrr*rrqr**********qtt",
"4d@*rrrrrrqrqr;q;qq;qqq;qq@r33q3@3@;@@;@@;;;@@sttsttstttttttt-i6694t-t-ttttttttttstsstssss@@ss@@s@@@@@s;;;q;qq*;q;;;rqr**q***q4-",
"di;p8888888*8*8****8******<<<<X#<#**qrqr;qqrrqq@;;;;;;@@@s@@q-o911yq@s@@@@@@@@@@@@;@;qq;qrqrrrrrrr***********88******8**8*p8pqd4",
"y4;,$$$$$$$$$$$$$$$$$$>$$$$$$$$$$$>w>>>>>>>>>>8>pppppp8pppp*>tii69-ppp*p8ppppppppppp>p>>p>www>>>pww>$$ww>w>w$$$>w>>$$$$$$$$$,*--"
};
